<?xml version="1.0" encoding="utf-8"?>
<!-- Generator: Adobe Illustrator 26.0.0, SVG Export Plug-In . SVG Version: 6.00 Build 0)  -->
<svg version="1.1" id="Layer_1" xmlns="http://www.w3.org/2000/svg" xmlns:xlink="http://www.w3.org/1999/xlink" x="0px" y="0px"
	 viewBox="0 0 144 60" style="enable-background:new 0 0 144 60;" xml:space="preserve">
<style type="text/css">
	.st0{fill-rule:evenodd;clip-rule:evenodd;fill:#E3000F;}
	.st1{fill:none;stroke:#E3000F;stroke-width:0.216;stroke-miterlimit:2.6131;}
	.st2{fill-rule:evenodd;clip-rule:evenodd;fill:#FFFFFF;}
	.st3{fill-rule:evenodd;clip-rule:evenodd;}
	.st4{fill:none;stroke:#000000;stroke-width:0.216;stroke-miterlimit:2.6131;}
</style>
<g>
	<rect x="2.1" y="14" class="st0" width="139.8" height="32.2"/>
	<rect x="2.1" y="14" class="st1" width="139.8" height="32.2"/>
	<path class="st2" d="M23.5,20.6l-4,12.8c-1.1,2-2.8,1.9-4.8,2.3l0,0.9l13.1,0l0-1c-2.2-0.1-3.6-0.8-3.3-2.5l3.6-12.8
		c0.7-1.5,2.3-2.5,4.2-2.6l0.2-0.8l-11.1-0.2l0.3,1.2C23.1,18.1,23.9,19,23.5,20.6z"/>
	<path class="st1" d="M23.5,20.6l-4,12.8c-1.1,2-2.8,1.9-4.8,2.3l0,0.9l13.1,0l0-1c-2.2-0.1-3.6-0.8-3.3-2.5l3.6-12.8
		c0.7-1.5,2.3-2.5,4.2-2.6l0.2-0.8l-11.1-0.2l0.3,1.2C23.1,18.1,23.9,19,23.5,20.6z"/>
	<path class="st2" d="M32.8,28.2l1.7-1.7c1.2-1,2.4-0.4,1.2,1.6l-3.6,7c-0.9,1.9,1.8,2.8,2.9,1.6c2.3-3.5,4.7-6.9,7.6-9.8
		c1.7-2,2.8-0.7,1.5,1.4L41,34.4c-0.5,2.4,0.5,3.3,2.8,2.5c2.3-1,4.3-2.3,5.9-4.2c1.3-1,0.3-1.9-0.8-0.7l-2.2,1.6
		c-0.7,0.7-1.6,0.3-1.1-0.8l2.5-4.6c2.2-5.7-2.5-4.8-3.8-4c-1.8,1-3.1,2.7-4.7,4.3c-1.3,1.8-2.2,1.9-1-0.3l1.4-2.5
		c0.6-2.3-1.6-2.9-4.3-1.8c-1.4,0.8-2.7,2-3.8,3.5C31.1,28.7,32,29,32.8,28.2z"/>
	<path class="st1" d="M32.8,28.2l1.7-1.7c1.2-1,2.4-0.4,1.2,1.6l-3.6,7c-0.9,1.9,1.8,2.8,2.9,1.6c2.3-3.5,4.7-6.9,7.6-9.8
		c1.7-2,2.8-0.7,1.5,1.4L41,34.4c-0.5,2.4,0.5,3.3,2.8,2.5c2.3-1,4.3-2.3,5.9-4.2c1.3-1,0.3-1.9-0.8-0.7l-2.2,1.6
		c-0.7,0.7-1.6,0.3-1.1-0.8l2.5-4.6c2.2-5.7-2.5-4.8-3.8-4c-1.8,1-3.1,2.7-4.7,4.3c-1.3,1.8-2.2,1.9-1-0.3l1.4-2.5
		c0.6-2.3-1.6-2.9-4.3-1.8c-1.4,0.8-2.7,2-3.8,3.5C31.1,28.7,32,29,32.8,28.2z"/>
	<path class="st2" d="M64.4,19c1,0,1.6,0.6,0.9,2.3l-1.6,3.4c-0.8-0.6-1.7-1.1-2.9-1c-3.2,0.4-5.5,2.1-7.2,4.6
		c-1.5,1.5-5.2,12,1.3,8.3c2.1-1.4,4.1-3.2,5.8-5.3c0.8-1.1,1.7-1.2,0.8,0.7L60,35.3c-1.4,2.6,1.6,2.8,5,0.4c5.6-4,4.7-6,0.6-2.3
		c-1.9,1.4-2.3,0.9-1.1-1.5l5.6-14.4c0.3-1.4,0.4-2-2.1-1.3l-3.4,1.3C63.2,18.2,63.7,18.6,64.4,19z"/>
	<path class="st1" d="M64.4,19c1,0,1.6,0.6,0.9,2.3l-1.6,3.4c-0.8-0.6-1.7-1.1-2.9-1c-3.2,0.4-5.5,2.1-7.2,4.6
		c-1.5,1.5-5.2,12,1.3,8.3c2.1-1.4,4.1-3.2,5.8-5.3c0.8-1.1,1.7-1.2,0.8,0.7L60,35.3c-1.4,2.6,1.6,2.8,5,0.4c5.6-4,4.7-6,0.6-2.3
		c-1.9,1.4-2.3,0.9-1.1-1.5l5.6-14.4c0.3-1.4,0.4-2-2.1-1.3l-3.4,1.3C63.2,18.2,63.7,18.6,64.4,19z"/>
	<path class="st2" d="M90.7,21.6l-5.6,13.5c-0.6,2.7,1.4,3.4,4,1.6l2.9-2.2c3-2.4,2.5-4.3-0.8-1c-2,1.1-2.6,0.8-1.8-0.9L95,18.5
		c0.9-2,0.5-2.6-2.7-1.3l-3.2,1.2l1.7,1.7C91,20.5,91,20.9,90.7,21.6z"/>
	<path class="st1" d="M90.7,21.6l-5.6,13.5c-0.6,2.7,1.4,3.4,4,1.6l2.9-2.2c3-2.4,2.5-4.3-0.8-1c-2,1.1-2.6,0.8-1.8-0.9L95,18.5
		c0.9-2,0.5-2.6-2.7-1.3l-3.2,1.2l1.7,1.7C91,20.5,91,20.9,90.7,21.6z"/>
	<path class="st2" d="M100.3,32l7.1-3.9c4-3-2.4-5.9-7.2-1.9c-1.8,1.5-3.4,4.2-4.2,8c-0.3,3.4,1.7,4.3,5.5,3c2.2-1,4.7-3.2,5.6-4
		c1.1-1,0.7-2-0.3-1.1C106.1,32.7,97.3,38.9,100.3,32z"/>
	<path class="st1" d="M100.3,32l7.1-3.9c4-3-2.4-5.9-7.2-1.9c-1.8,1.5-3.4,4.2-4.2,8c-0.3,3.4,1.7,4.3,5.5,3c2.2-1,4.7-3.2,5.6-4
		c1.1-1,0.7-2-0.3-1.1C106.1,32.7,97.3,38.9,100.3,32z"/>
	<path class="st2" d="M115.5,31.8c-1.1-3.6-1.9-4.8-2.9-3.3c-1.3,2.6-1.8,2.7-1.5,0.2c0.3-1.3,0.9-2.7,1.9-3.9
		c1.6-1.1,2.9-0.8,3.8,1.1l1.2,3.4l4.6-4.4c2.3-1.5,4.9-0.1,3.3,2.2c-0.8,1.3-1.7,1.8-2.3,1.4c-0.2-1.5-0.6-2-1.6-1.4l-3.3,3.3
		l0.9,3.3c0.5,1.3,1.8,1.7,3,0.4c1.9-3.6,3.3-2.9,1.4,0.2c-2.1,3.7-4.4,4.5-6.6,2.6l-1.6-3.4l-4.2,3.5c-2.2,1.6-4.8,1.3-4.7-1.3
		c1.3-2.5,4.3-2.4,3.4-0.2c0.5,0.3,1.2,0.2,2.2-0.6L115.5,31.8z"/>
	<path class="st1" d="M115.5,31.8c-1.1-3.6-1.9-4.8-2.9-3.3c-1.3,2.6-1.8,2.7-1.5,0.2c0.3-1.3,0.9-2.7,1.9-3.9
		c1.6-1.1,2.9-0.8,3.8,1.1l1.2,3.4l4.6-4.4c2.3-1.5,4.9-0.1,3.3,2.2c-0.8,1.3-1.7,1.8-2.3,1.4c-0.2-1.5-0.6-2-1.6-1.4l-3.3,3.3
		l0.9,3.3c0.5,1.3,1.8,1.7,3,0.4c1.9-3.6,3.3-2.9,1.4,0.2c-2.1,3.7-4.4,4.5-6.6,2.6l-1.6-3.4l-4.2,3.5c-2.2,1.6-4.8,1.3-4.7-1.3
		c1.3-2.5,4.3-2.4,3.4-0.2c0.5,0.3,1.2,0.2,2.2-0.6L115.5,31.8z"/>
	<path class="st0" d="M58.5,26.1c-1.2,1.9-1.9,3.3-2.9,6.2c-0.7,1.9-0.3,2.3,1.3,1.2l5.3-5.3c0.4-0.7,0.3-1.3-0.6-1.6L60,25.8
		C59.5,25.4,59,25.5,58.5,26.1z"/>
	<path class="st1" d="M58.5,26.1c-1.2,1.9-1.9,3.3-2.9,6.2c-0.7,1.9-0.3,2.3,1.3,1.2l5.3-5.3c0.4-0.7,0.3-1.3-0.6-1.6L60,25.8
		C59.5,25.4,59,25.5,58.5,26.1z"/>
	<path class="st0" d="M102.5,26.5l-1.5,2.4c-0.2,1-0.1,1.3,1.1,1l2.5-1.4C105.9,26.7,103.2,25.2,102.5,26.5z"/>
	<path class="st1" d="M102.5,26.5l-1.5,2.4c-0.2,1-0.1,1.3,1.1,1l2.5-1.4C105.9,26.7,103.2,25.2,102.5,26.5z"/>
	<path class="st3" d="M4.2,0.6L9,0.5l0.7,1l11.4,0.1l1.4,0.6l98.8,0.3l2-1l10.3,0.1l1.5-0.9l5.1,0.2c3.3,1.8,3.1,9.1-0.1,10.1
		l-4.9,0.1l-1.5-0.7l-10.5-0.1l-1.9-0.6L22.6,9.3l-1.4,0.5L9.7,9.9L9,10.5l-4.9,0.1C0.3,8.5,0.5,3,4.2,0.6z"/>
	<path class="st4" d="M4.2,0.6L9,0.5l0.7,1l11.4,0.1l1.4,0.6l98.8,0.3l2-1l10.3,0.1l1.5-0.9l5.1,0.2c3.3,1.8,3.1,9.1-0.1,10.1
		l-4.9,0.1l-1.5-0.7l-10.5-0.1l-1.9-0.6L22.6,9.3l-1.4,0.5L9.7,9.9L9,10.5l-4.9,0.1C0.3,8.5,0.5,3,4.2,0.6z"/>
	<path class="st2" d="M20.5,2.3c0.8,0.3,0.8,0.5-0.1,0.9H9.7c-0.6-0.4-0.6-0.6,0-0.9L20.5,2.3z"/>
	<path class="st2" d="M20,4.3c0.8,0.2,0.8,0.5-0.1,0.9H9.5C8.9,4.8,9,4.6,9.6,4.3L20,4.3z"/>
	<path class="st2" d="M20.1,6.3c0.8,0.2,0.8,0.5-0.1,0.8H9.7c-0.6-0.3-0.6-0.5,0-0.8L20.1,6.3z"/>
	<path class="st2" d="M20.1,8.3c0.8,0.3,0.8,0.5-0.1,0.9H9.7c-0.6-0.4-0.6-0.6,0-0.9L20.1,8.3z"/>
	<path class="st2" d="M8.1,2.3c0.3-0.5,0.1-0.9-0.7-1.1h-3l-1.1,1c-0.2,0.7,0,1,0.6,1.1L7,3.1L8.1,2.3z"/>
	<path class="st2" d="M7.9,9C8.2,9.4,8,9.7,7.2,9.8h-3L3.1,9.1C3,8.6,3.1,8.3,3.7,8.3l3.1,0.1L7.9,9z"/>
	<path class="st2" d="M6.9,4.3c1.3,1.2,1,2.1-0.1,2.8H2c-0.2-0.9-0.2-2,0-3L6.9,4.3z"/>
	<path class="st2" d="M122.9,9.3c-0.8-0.3-0.8-0.5,0.1-0.9h10.7c0.6,0.4,0.6,0.6,0,0.9L122.9,9.3z"/>
	<path class="st2" d="M123.4,7.3c-0.8-0.2-0.8-0.5,0.1-0.9h10.3c0.6,0.4,0.6,0.6,0,0.8L123.4,7.3z"/>
	<path class="st2" d="M123.3,5.2c-0.8-0.2-0.8-0.5,0.1-0.8h10.3c0.6,0.3,0.6,0.5,0,0.8L123.3,5.2z"/>
	<path class="st2" d="M123.3,3.3c-0.8-0.3-0.8-0.5,0.1-0.9h10.3c0.6,0.4,0.6,0.6,0,0.9L123.3,3.3z"/>
	<path class="st2" d="M135.3,9.4c-0.3,0.5-0.1,0.8,0.7,1h3l1.1-0.9c0.2-0.6,0-0.9-0.6-1l-3.1,0.1L135.3,9.4z"/>
	<path class="st2" d="M135.5,2.6c-0.3-0.4-0.1-0.7,0.7-0.8h3l1.1,0.7c0.2,0.5,0,0.7-0.6,0.8l-3.1-0.1L135.5,2.6z"/>
	<path class="st2" d="M136.5,7.3c-1.3-1.2-1-2.1,0.1-2.8h4.8c0.2,0.9,0.2,2,0,3L136.5,7.3z"/>
	<path class="st3" d="M4.2,0.6L9,0.5l0.7,1l11.4,0.1l1.4,0.6l98.8,0.3l2-1l10.3,0.1l1.5-0.9l5.1,0.2c3.3,1.8,3.1,9.1-0.1,10.1
		l-4.9,0.1l-1.5-0.7l-10.5-0.1l-1.9-0.6L22.6,9.3l-1.4,0.5L9.7,9.9L9,10.5l-4.9,0.1C0.3,8.5,0.5,3,4.2,0.6z"/>
	<path class="st4" d="M4.2,0.6L9,0.5l0.7,1l11.4,0.1l1.4,0.6l98.8,0.3l2-1l10.3,0.1l1.5-0.9l5.1,0.2c3.3,1.8,3.1,9.1-0.1,10.1
		l-4.9,0.1l-1.5-0.7l-10.5-0.1l-1.9-0.6L22.6,9.3l-1.4,0.5L9.7,9.9L9,10.5l-4.9,0.1C0.3,8.5,0.5,3,4.2,0.6z"/>
	<path class="st2" d="M20.5,2.3c0.8,0.3,0.8,0.5-0.1,0.9H9.7c-0.6-0.4-0.6-0.6,0-0.9L20.5,2.3z"/>
	<path class="st2" d="M20,4.3c0.8,0.2,0.8,0.5-0.1,0.9H9.5C8.9,4.8,9,4.6,9.6,4.3L20,4.3z"/>
	<path class="st2" d="M20.1,6.3c0.8,0.2,0.8,0.5-0.1,0.8H9.7c-0.6-0.3-0.6-0.5,0-0.8L20.1,6.3z"/>
	<path class="st2" d="M20.1,8.3c0.8,0.3,0.8,0.5-0.1,0.9H9.7c-0.6-0.4-0.6-0.6,0-0.9L20.1,8.3z"/>
	<path class="st2" d="M8.1,2.3c0.3-0.5,0.1-0.9-0.7-1.1h-3l-1.1,1c-0.2,0.7,0,1,0.6,1.1L7,3.1L8.1,2.3z"/>
	<path class="st2" d="M7.9,9C8.2,9.4,8,9.7,7.2,9.8h-3L3.1,9.1C3,8.6,3.1,8.3,3.7,8.3l3.1,0.1L7.9,9z"/>
	<path class="st2" d="M6.9,4.3c1.3,1.2,1,2.1-0.1,2.8H2c-0.2-0.9-0.2-2,0-3L6.9,4.3z"/>
	<path class="st2" d="M122.9,9.3c-0.8-0.3-0.8-0.5,0.1-0.9h10.7c0.6,0.4,0.6,0.6,0,0.9L122.9,9.3z"/>
	<path class="st2" d="M123.4,7.3c-0.8-0.2-0.8-0.5,0.1-0.9h10.3c0.6,0.4,0.6,0.6,0,0.8L123.4,7.3z"/>
	<path class="st2" d="M123.3,5.2c-0.8-0.2-0.8-0.5,0.1-0.8h10.3c0.6,0.3,0.6,0.5,0,0.8L123.3,5.2z"/>
	<path class="st2" d="M123.3,3.3c-0.8-0.3-0.8-0.5,0.1-0.9h10.3c0.6,0.4,0.6,0.6,0,0.9L123.3,3.3z"/>
	<path class="st2" d="M135.3,9.4c-0.3,0.5-0.1,0.8,0.7,1h3l1.1-0.9c0.2-0.6,0-0.9-0.6-1l-3.1,0.1L135.3,9.4z"/>
	<path class="st2" d="M135.5,2.6c-0.3-0.4-0.1-0.7,0.7-0.8h3l1.1,0.7c0.2,0.5,0,0.7-0.6,0.8l-3.1-0.1L135.5,2.6z"/>
	<path class="st2" d="M136.5,7.3c-1.3-1.2-1-2.1,0.1-2.8h4.8c0.2,0.9,0.2,2,0,3L136.5,7.3z"/>
	<path class="st3" d="M4.4,49.1L9.2,49l0.7,1l11.4,0.1l1.4,0.6l98.8,0.3l2-1l10.3,0.1l1.5-0.9l5.1,0.2c3.3,1.8,3.1,9.1-0.1,10.1
		l-4.9,0.1l-1.5-0.7l-10.5-0.1l-1.9-0.6l-98.7-0.2l-1.4,0.5L9.8,58.4L9.2,59l-4.9,0.1C0.4,57,0.7,51.5,4.4,49.1z"/>
	<path class="st4" d="M4.4,49.1L9.2,49l0.7,1l11.4,0.1l1.4,0.6l98.8,0.3l2-1l10.3,0.1l1.5-0.9l5.1,0.2c3.3,1.8,3.1,9.1-0.1,10.1
		l-4.9,0.1l-1.5-0.7l-10.5-0.1l-1.9-0.6l-98.7-0.2l-1.4,0.5L9.8,58.4L9.2,59l-4.9,0.1C0.4,57,0.7,51.5,4.4,49.1z"/>
	<path class="st2" d="M20.6,50.8c0.8,0.3,0.8,0.5-0.1,0.9H9.9c-0.6-0.4-0.6-0.6,0-0.9L20.6,50.8z"/>
	<path class="st2" d="M20.1,52.8c0.8,0.2,0.8,0.5-0.1,0.9H9.7c-0.6-0.4-0.6-0.6,0-0.8L20.1,52.8z"/>
	<path class="st2" d="M20.3,54.8c0.8,0.2,0.8,0.5-0.1,0.8H9.9c-0.6-0.3-0.6-0.5,0-0.8L20.3,54.8z"/>
	<path class="st2" d="M20.3,56.8c0.8,0.3,0.8,0.5-0.1,0.9H9.9c-0.6-0.4-0.6-0.6,0-0.9L20.3,56.8z"/>
	<path class="st2" d="M8.2,50.8c0.3-0.5,0.1-0.9-0.7-1.1h-3l-1.1,1c-0.2,0.7,0,1,0.6,1.1l3.1-0.1L8.2,50.8z"/>
	<path class="st2" d="M8.1,57.5c0.3,0.4,0.1,0.7-0.7,0.8h-3l-1.1-0.7c-0.2-0.5,0-0.7,0.6-0.8L7,56.9L8.1,57.5z"/>
	<path class="st2" d="M7.1,52.8c1.3,1.2,1,2.1-0.1,2.8H2.2c-0.2-0.9-0.2-2,0-3L7.1,52.8z"/>
	<path class="st2" d="M123.1,57.8c-0.8-0.3-0.8-0.5,0.1-0.9h10.7c0.6,0.4,0.6,0.6,0,0.9L123.1,57.8z"/>
	<path class="st2" d="M123.6,55.8c-0.8-0.2-0.8-0.5,0.1-0.9H134c0.6,0.4,0.6,0.6,0,0.8L123.6,55.8z"/>
	<path class="st2" d="M123.5,53.7c-0.8-0.2-0.8-0.5,0.1-0.8h10.3c0.6,0.3,0.6,0.5,0,0.8L123.5,53.7z"/>
	<path class="st2" d="M123.5,51.8c-0.8-0.3-0.8-0.5,0.1-0.9h10.3c0.6,0.4,0.6,0.6,0,0.9L123.5,51.8z"/>
	<path class="st2" d="M135.5,57.9c-0.3,0.5-0.1,0.8,0.7,1h3l1.1-0.9c0.2-0.6,0-0.9-0.6-1l-3.1,0.1L135.5,57.9z"/>
	<path class="st2" d="M135.6,51.1c-0.3-0.4-0.1-0.7,0.7-0.8h3l1.1,0.7c0.2,0.5,0,0.7-0.6,0.8l-3.1-0.1L135.6,51.1z"/>
	<path class="st2" d="M136.6,55.8c-1.3-1.2-1-2.1,0.1-2.8h4.8c0.2,0.9,0.2,2,0,3L136.6,55.8z"/>
	<path class="st2" d="M73.9,24.9c2.3-6.3,5.9-9.3,12.1-8.1c1.9,1.1,1.7,2.4-0.3,4.1c-1.2,0.5-2,0.5-1.9-0.4c1.2-2.6-2-3.8-4.1-1.3
		c-1.2,1.9-1.9,3.8-2.2,5.8l4.1,0.1c0.1,0.5-0.1,0.9-0.7,1.3l-4.1,0.4c-3.2,11-3.3,16.2-9.8,17.9c-0.1,0-0.1,0-0.2,0
		c-2.2,0.7-3.9-0.5-4-1.7c-0.1-2.3,1.8-2.2,2.8-1.4c0.5,0.4,1,0.7,1.5,1.1c1.2,0.3,2.1-0.4,2.6-2.1l3.3-13.7l-2.3,0.1
		c-0.3-0.3-0.4-0.7-0.1-1.2L73.9,24.9z"/>
	<path class="st1" d="M73.9,24.9c2.3-6.3,5.9-9.3,12.1-8.1c1.9,1.1,1.7,2.4-0.3,4.1c-1.2,0.5-2,0.5-1.9-0.4c1.2-2.6-2-3.8-4.1-1.3
		c-1.2,1.9-1.9,3.8-2.2,5.8l4.1,0.1c0.1,0.5-0.1,0.9-0.7,1.3l-4.1,0.4c-3.2,11-3.3,16.2-9.8,17.9c-0.1,0-0.1,0-0.2,0
		c-2.2,0.7-3.9-0.5-4-1.7c-0.1-2.3,1.8-2.2,2.8-1.4c0.5,0.4,1,0.7,1.5,1.1c1.2,0.3,2.1-0.4,2.6-2.1l3.3-13.7l-2.3,0.1
		c-0.3-0.3-0.4-0.7-0.1-1.2L73.9,24.9z"/>
</g>
</svg>
