<?xml version="1.0" encoding="utf-8"?>
<!-- Generator: Adobe Illustrator 26.0.0, SVG Export Plug-In . SVG Version: 6.00 Build 0)  -->
<svg version="1.1" id="Layer_1" xmlns="http://www.w3.org/2000/svg" xmlns:xlink="http://www.w3.org/1999/xlink" x="0px" y="0px"
	 viewBox="0 0 246.6 93.9" style="enable-background:new 0 0 246.6 93.9;" xml:space="preserve">
<style type="text/css">
	.st0{fill:#FFFFFF;stroke:#231F20;stroke-width:0.69;}
	.st1{fill-rule:evenodd;clip-rule:evenodd;fill:#010101;}
	.st2{fill:#010101;}
	.st3{fill:#D21F42;}
	.st4{fill:#90887B;}
	.st5{fill:#FFFFFF;}
	.st6{enable-background:new    ;}
	.st7{fill:#231F20;}
</style>
<g id="Layer_2_00000163043782765596915120000015401010326002568892_">
	<g id="Layer_1-2">
		<rect x="0.3" y="0.3" class="st0" width="245.9" height="93.2"/>
		<polygon class="st1" points="227.2,22.2 212.4,42.7 205,33 205,43.5 212.4,51.5 227.2,29.9 227.2,22.2 		"/>
		<path class="st1" d="M213.9,27.1c2.2,0,4.5,0.3,6.6,1l0.3-0.7l0.6-0.2l-0.2-0.6l1.8-4.2l-0.1-0.3l0,0c0.3,0,0.5-0.1,0.7-0.3
			c0.1-0.3-0.1-0.6-0.3-0.8c-0.2-0.1-0.5-0.1-0.7,0v-0.1c0.1-0.2,0.2-0.4,0.2-0.5l0.3,0.3c0.3,0.1,0.6,0,0.8-0.3c0,0,0,0,0,0
			c0.1-0.2,0-0.5-0.3-0.8c-0.2,0-0.4,0-0.7,0.1v-0.5c0.2,0,0.3,0.1,0.6,0.1s0.6-0.3,0.4-0.7c0-0.3-0.3-0.5-0.6-0.5
			c-0.2,0.1-0.4,0.2-0.6,0.3c0-0.2-0.1-0.3-0.2-0.4c0.2,0,0.3,0,0.4-0.1c0.3-0.1,0.4-0.3,0.4-0.6c0,0,0,0,0-0.1
			c-0.1-0.3-0.4-0.5-0.7-0.3c0,0,0,0,0,0c-0.1,0.1-0.3,0.2-0.4,0.4c-0.1-0.1-0.2-0.3-0.3-0.4c0.2,0,0.3-0.1,0.4-0.2
			c0.2-0.2,0.1-0.5-0.1-0.8c-0.2-0.2-0.5-0.2-0.7,0c0,0,0,0,0,0c-0.1,0.2-0.2,0.4-0.2,0.6c-0.2-0.1-0.4-0.2-0.6-0.3
			c0.2-0.1,0.4-0.2,0.4-0.4c0.1-0.3,0-0.5-0.3-0.6c0,0,0,0-0.1,0c-0.3-0.1-0.6,0-0.8,0.3c0,0,0,0,0,0c-0.1,0.1,0,0.4,0.1,0.7
			c-0.2-0.1-0.5-0.1-0.8-0.1c0.1-0.1,0.2-0.3,0.2-0.4c0-0.3-0.3-0.5-0.6-0.6c-0.3,0-0.6,0.2-0.7,0.6c0,0.2,0.2,0.4,0.3,0.5
			c-0.2,0.1-0.5,0.2-0.8,0.2c0-0.1,0.1-0.3,0-0.4c-0.1-0.3-0.4-0.6-0.7-0.4s-0.5,0.4-0.4,0.7c0.1,0.2,0.2,0.4,0.4,0.5
			c-0.2,0-0.4,0.1-0.5,0.2c-0.1,0-0.2,0-0.3,0.1c0.2-0.2,0.2-0.5,0.1-0.8c0-0.2-0.3-0.4-0.7-0.3c-0.2,0-0.4,0.3-0.4,0.5
			c0,0,0,0.1,0,0.1c0,0.2,0.2,0.5,0.4,0.5c-0.3,0.1-0.5,0.1-0.8,0v-0.5l-0.2-0.2c0.3-0.4,0.6-0.6,0.6-1.2c0-0.5-0.2-1-0.6-1.3
			c-0.4-0.2-0.6-0.6-0.7-1v-0.2c0.3,0,0.6,0,0.9,0.1v-1.2c-0.2,0.2-0.6,0.3-0.9,0.3v-0.3c0.1-0.2,0.2-0.4,0.3-0.6h-1.2
			c0.1,0.2,0.2,0.4,0.3,0.6v0.3c-0.3,0-0.7-0.1-1-0.2v1.1c0.3-0.1,0.7-0.1,1-0.1v0.2c-0.1,0.4-0.3,0.8-0.7,1.1
			c-0.3,0.1-0.6,0.7-0.6,1.2s0.2,0.8,0.6,1.2l-0.3,0.2V17c0,0-0.1,0.1-0.7,0c0.2-0.1,0.4-0.3,0.4-0.5c0.1-0.2-0.1-0.5-0.3-0.6
			c-0.3-0.1-0.6,0.1-0.8,0.3c0,0.3,0,0.5,0.1,0.8c0-0.1-0.1-0.1-0.2-0.1s-0.3-0.1-0.6-0.2c0.2-0.1,0.3-0.3,0.4-0.4
			c0-0.3-0.1-0.6-0.4-0.8c-0.3-0.1-0.6,0.1-0.7,0.4c-0.1,0.2-0.1,0.4,0,0.6c-0.3-0.1-0.6-0.2-0.9-0.3c0.2-0.1,0.3-0.3,0.3-0.6
			c0-0.3-0.2-0.6-0.6-0.6s-0.6,0.2-0.6,0.6l0,0c0,0.2,0.1,0.4,0.2,0.6c-0.2-0.1-0.6,0-0.8,0c0.1-0.2,0.1-0.4,0.1-0.7
			c-0.1-0.3-0.5-0.4-0.8-0.3c-0.3,0.1-0.5,0.4-0.3,0.7c0,0,0,0,0,0c0.1,0.1,0.2,0.3,0.3,0.3c-0.2,0.1-0.4,0.2-0.6,0.3
			c0.1-0.2,0-0.4-0.1-0.6c-0.3-0.2-0.6-0.2-0.9,0c-0.2,0.2-0.2,0.5,0,0.7c0,0,0,0,0,0c0.1,0.1,0.3,0.2,0.4,0.3
			c-0.1,0.1-0.3,0.2-0.4,0.3c0-0.2-0.2-0.3-0.3-0.4c-0.3-0.1-0.6,0-0.8,0.3c-0.1,0.3,0,0.6,0.3,0.8l0,0h0.4
			c-0.1,0.1-0.2,0.3-0.2,0.4c-0.2-0.1-0.3-0.2-0.6-0.2c-0.3-0.1-0.6,0.1-0.6,0.4c-0.1,0.2,0,0.5,0.3,0.6c0.1,0,0.1,0,0.2,0
			c0.2,0,0.4,0,0.6-0.1v0.5c-0.2-0.1-0.5-0.1-0.8,0c-0.2,0.1-0.3,0.4-0.2,0.6c0.1,0.3,0.3,0.4,0.6,0.4c0,0,0,0,0.1,0
			c0.2,0,0.3-0.2,0.4-0.3c0.1,0.2,0.1,0.4,0.2,0.5V21h-0.7c-0.3,0.1-0.4,0.5-0.3,0.8c0.2,0.2,0.4,0.3,0.7,0.3l0,0l-0.1,0.3l1.8,4.2
			l-0.2,0.6l0.6,0.2l0.3,0.7C209.3,27.4,211.6,27.1,213.9,27.1L213.9,27.1z M211.7,24.5c0.2-0.7,0.8-1.2,1.5-1.2
			c-0.1,0.8-0.4,1.5-1.5,1.5c-0.9,0-1.7-0.6-1.9-1.5c0-0.2,0.2-0.3,0.3-0.3c0.2,0,0.4,0.2,0.4,0.4c0,0.1,0,0.1,0,0.2
			c0.4,0,0.8-0.4,0.8-0.8c0,0,0-0.1,0-0.1c0-0.3-0.4-0.7-0.9-0.7c-0.2,0-0.5,0.1-0.7,0.2c-0.1-0.5-0.4-1-0.7-1.4
			c-0.4-0.3-0.4-0.3-0.6,0.1c-0.2,0.5-0.2,1,0,1.5c-0.2,0-1.1,0.1-1.1,0.9c0,0.5,0.3,0.8,0.6,0.8c0.2,0,0.4-0.1,0.6-0.2
			c-0.2-0.1-0.2-0.1-0.2-0.2c0.1-0.2,0.2-0.3,0.3-0.3c0.3,0,0.4,0.3,0.4,0.6c0,0.7-0.5,1.3-1.2,1.3c0,0-0.1,0-0.1,0
			c-0.6,0-1.2-0.4-1.3-1c0.5,0,0.9,0.3,1.1,0.8l0.2-0.1l-1.3-3.2l-0.2,0.1c0.2,0.2,0.3,0.5,0.3,0.8c0,0.3-0.2,0.8-0.4,0.8
			s-0.2-0.2-0.2-0.8c0-0.5,0.1-0.9,0.3-1.3c-0.4-0.6-0.6-1.2-0.7-1.9c0-1.5,1.2-2.7,2.8-2.7c1.5,0,2,0.9,4.3,1.1v2.4
			c-0.1,0.1-0.3,0.2-0.4,0.2v0.2c0.7,0.5,1.1,0.5,1.2,1.5c-0.8,0-1.1-0.2-1.5-1.2h-0.3v3.5L211.7,24.5z M221.8,22.6
			c0,0.5,0,0.7-0.2,0.8s-0.3-0.4-0.3-0.8c0.1-0.3,0.1-0.5,0.2-0.8l-0.2-0.1l-1.3,3.2l0.2,0.1c0.2-0.4,0.6-0.7,1.1-0.8
			c-0.1,0.6-0.7,1-1.3,1c-0.7,0-1.3-0.5-1.3-1.2c0,0,0-0.1,0-0.1c0-0.3,0.1-0.6,0.4-0.6c0.2,0,0.3,0.2,0.3,0.3c0,0.1,0,0.1-0.1,0.2
			s0.2,0.2,0.4,0.2c0.4,0,0.7-0.4,0.7-0.8c0-0.8-1-0.9-1.2-0.9c0.2-0.5,0.2-1,0-1.5c-0.1-0.4-0.1-0.4-0.6-0.1
			c-0.3,0.4-0.5,0.9-0.7,1.4c-0.2-0.1-0.4-0.2-0.7-0.2c-0.4,0-0.9,0.3-0.9,0.7c-0.1,0.4,0.2,0.8,0.7,0.9c0,0,0.1,0,0.1,0
			c-0.1-0.2,0-0.4,0.2-0.5c0,0,0.1,0,0.2,0c0.2,0,0.3,0.2,0.3,0.3c-0.2,0.9-0.9,1.5-1.8,1.5c-1.1,0-1.4-0.8-1.5-1.5
			c0.7,0,1.3,0.5,1.5,1.2h0.2V21h-0.3c-0.4,1-0.8,1.2-1.5,1.2c0.1-1,0.6-1,1.3-1.5v-0.2c-0.2,0-0.4-0.1-0.6-0.2v-2.5
			c1.9-0.2,2.6-1.1,4.2-1.1c1.5,0.1,2.8,1.3,2.9,2.9c-0.1,0.7-0.3,1.3-0.7,1.9C221.7,21.7,221.8,22.2,221.8,22.6L221.8,22.6z"/>
		<polygon class="st1" points="213.1,16.6 213.1,16.6 213.1,20.3 213.1,20.3 213.1,16.6 		"/>
		<path class="st1" d="M213.9,13.9c0.1,0,0.2,0,0.2,0.3v0.3c0,0.3,0,0.3,0.4,0.3s0.7,0.1,0.7,0.2s-0.1,0.2-0.3,0.2
			c0,0-0.9-0.1-1-0.1s-1.1,0.1-1.1,0.1c-0.2,0-0.2-0.1-0.2-0.2s0.1-0.2,0.6-0.2s0.4,0,0.4-0.3v-0.3
			C213.5,13.9,213.6,13.9,213.9,13.9L213.9,13.9z"/>
		<polygon class="st1" points="214.5,20.3 214.5,20.3 214.5,16.6 214.5,16.6 214.5,20.3 		"/>
		<path class="st1" d="M213.9,16.9c0.1,0,0.2-0.1,0.2-0.3s-0.1-0.3-0.2-0.3c-0.2,0-0.3,0.1-0.3,0.2c0,0,0,0.1,0,0.1
			C213.5,16.7,213.6,16.9,213.9,16.9C213.8,16.9,213.8,16.9,213.9,16.9z"/>
		<path class="st1" d="M213.9,17.8c0.1,0,0.2-0.2,0.2-0.3s-0.1-0.3-0.2-0.3c-0.2,0-0.3,0.1-0.3,0.2c0,0,0,0.1,0,0.1
			C213.5,17.6,213.7,17.8,213.9,17.8z"/>
		<path class="st1" d="M213.9,18.6c0.1,0,0.2-0.1,0.2-0.2c0-0.2-0.1-0.3-0.2-0.3c-0.2,0-0.3,0.1-0.3,0.2c0,0,0,0.1,0,0.1
			C213.5,18.5,213.6,18.6,213.9,18.6z"/>
		<path class="st1" d="M213.9,19.4c0.1,0,0.2-0.1,0.2-0.3s-0.1-0.3-0.2-0.3c-0.2,0-0.3,0.2-0.3,0.3
			C213.5,19.3,213.6,19.4,213.9,19.4C213.8,19.4,213.8,19.4,213.9,19.4z"/>
		<path class="st1" d="M213.9,20.2c0.1,0,0.2-0.1,0.2-0.3c0-0.1-0.1-0.2-0.2-0.2c-0.2,0-0.3,0.1-0.3,0.2
			C213.5,20,213.6,20.2,213.9,20.2C213.8,20.2,213.8,20.2,213.9,20.2z"/>
		<path class="st1" d="M211,26.1c0,0.3-0.2,0.3-0.6,0.4s-0.9,0.1-1,0.1c-0.2,0-0.3-0.1-0.3-0.2c0,0,0-0.1,0-0.1
			c0-0.3,0.6-0.5,1.3-0.5C210.8,25.8,211,25.9,211,26.1L211,26.1z"/>
		<polygon class="st1" points="206.9,27.2 206.5,27.1 206.7,26.7 207.2,26.8 206.9,27.2 		"/>
		<polygon class="st1" points="213.8,25.3 214.4,26 213.8,26.5 213.1,26 213.8,25.3 		"/>
		<path class="st1" d="M216.6,26.1c0,0.3,0.2,0.3,0.6,0.4c0.1,0,0.8,0.1,1,0.1c0.2,0,0.3-0.2,0.3-0.3c0-0.3-0.6-0.5-1.3-0.5
			C216.8,25.8,216.6,25.9,216.6,26.1L216.6,26.1z"/>
		<polygon class="st1" points="220.6,27.2 221,27.1 220.9,26.7 220.5,26.8 220.6,27.2 		"/>
		<path class="st1" d="M207.9,54c0,0,0.1,1.6,0.1,3.4s-0.1,3.7-0.1,3.7h1.8c0,0-0.1-2.3-0.1-3.7s0.1-3.4,0.1-3.4H207.9z"/>
		<path class="st1" d="M209.5,57.4c0,0,1.1-1.2,1.5-1.8l1.3-1.7h1.1c0,0-2,2.3-2.4,2.7l-1.1,0.9L209.5,57.4L209.5,57.4z"/>
		<polygon class="st1" points="210.7,57 213.6,61.1 211.8,61.1 209.6,57.8 209.5,57.4 210.7,57 		"/>
		<path class="st1" d="M197.8,54h1.5v2.8c0,1.1-0.3,3.8,1.9,3.8c1.8,0,2-1.4,2-2.8V54h1v3.4c-0.1,1.6,0,3.8-3.3,3.8s-3.1-2.4-3.1-3
			L197.8,54L197.8,54z"/>
		<path class="st1" d="M217,61.1c0.3-0.9,0.6-1.7,1-2.5c0.6-1.5,1-2.5,1-2.5s0.8,1.8,1.2,2.8s0.8,2.2,0.8,2.2h1.8
			c0,0-0.8-1.9-1.5-3.6c-0.4-1-1.3-3.5-1.3-3.5H219c0,0-1.6,3.8-2,4.9s-1,2.2-1,2.2L217,61.1z"/>
		<polygon class="st1" points="217.5,59 220.6,59 220.6,58.4 217.5,58.4 217.5,59 		"/>
		<path class="st1" d="M229.5,54.3l-0.2,1.1l-0.2-0.1c-0.2-0.5-0.7-0.8-1.2-0.8c-0.9,0-1.1,0.5-1.1,1s0.3,0.9,1.2,1.3
			s1.9,0.9,1.9,2.2s-1.1,2.2-2.6,2.2s-1.8-0.4-1.8-0.4l0.3-1.2h0.1c0.2,0.6,0.7,1,1.3,1.1c1.1,0,1.4-0.4,1.4-1.2s-1-1.1-1.8-1.4
			c-0.8-0.4-1.4-1.1-1.4-2c0-1.2,1.1-2.2,2.3-2.2c0,0,0.1,0,0.1,0C228.4,53.8,229,54,229.5,54.3L229.5,54.3z"/>
		<path class="st2" d="M241.3,76.9h-55.4V7.2h55.4L241.3,76.9z M187.3,75.3h52.4V8.7h-52.4L187.3,75.3z"/>
		<path class="st2" d="M195.1,67c-0.1,0-0.2,0-0.3,0c-0.1,0-0.2,0-0.2,0c0.2-1.2,0.4-2.5,0.6-3.9h0.2h0.2c0.5,1.1,0.9,2,1.3,2.7
			c0.5-0.9,0.9-1.8,1.3-2.7h0.2h0.2c0.1,1.3,0.3,2.6,0.5,3.9c-0.2,0-0.3,0-0.5,0c-0.2,0-0.3,0-0.5,0c0-0.9-0.1-1.8-0.2-2.6
			c-0.7,1.4-1.1,2.3-1.2,2.6h-0.1h-0.1c-0.1-0.4-0.6-1.2-1.2-2.5C195.1,65.6,195.1,66.4,195.1,67z"/>
		<path class="st2" d="M199.3,67c0.5-1.1,1.1-2.4,1.6-3.9h0.2h0.2c0.5,1.3,1,2.6,1.6,3.9c-0.2,0-0.4,0-0.5,0s-0.3,0-0.5,0
			c-0.1-0.3-0.2-0.7-0.4-1.1l0,0c-0.2,0-0.4,0-0.7-0.1c-0.1,0-0.4,0-0.7,0.1l0,0c-0.1,0.3-0.2,0.7-0.4,1.1c-0.1,0-0.2,0-0.3,0
			C199.5,67,199.4,67,199.3,67z M200.4,65.5c0.2,0,0.4,0,0.5,0c0.2,0,0.3,0,0.5,0l-0.5-1.3L200.4,65.5z"/>
		<path class="st2" d="M203.5,67c0-0.5,0-1.3,0-2.4c0-0.5,0-1,0-1.5h0.3h0.3c0.4,0.5,1.2,1.4,2.4,2.6v-1c0-0.3,0-0.8,0-1.6h0.2h0.2
			c0,0.7,0,1.4,0,2.2v0.8c0,0.3,0,0.6,0,0.9c-0.1,0-0.2,0-0.2,0c-0.1,0-0.2,0-0.2,0c-0.8-0.9-1.6-1.8-2.4-2.7l0,0v1
			c0,0.7,0,1.3,0,1.7c-0.1,0-0.2,0-0.2,0C203.7,67,203.6,67,203.5,67z"/>
		<path class="st2" d="M207.4,67c0.6-1.3,1.1-2.6,1.6-3.9h0.2h0.2c0.5,1.3,1,2.6,1.6,3.9c-0.2,0-0.4,0-0.5,0s-0.2,0-0.5,0
			c-0.1-0.3-0.2-0.7-0.4-1.1l0,0c-0.2,0-0.5,0-0.7-0.1c-0.1,0-0.4,0-0.7,0.1l0,0c-0.1,0.3-0.2,0.7-0.4,1.1c-0.1,0-0.2,0-0.3,0
			C207.6,67,207.5,67,207.4,67z M208.5,65.5c0.2,0,0.4,0,0.5,0c0.2,0,0.3,0,0.5,0l-0.5-1.3L208.5,65.5z"/>
		<path class="st2" d="M214.1,66.7c0-0.2,0-0.4,0-0.6c0-0.3,0-0.5,0-0.8h0.4h0.4c0,0.2,0,0.5,0,0.8v0.3c0,0.2,0,0.3,0,0.5
			c-0.5,0.1-1,0.2-1.4,0.2c-0.6,0-1.2-0.2-1.6-0.5c-0.4-0.4-0.6-0.9-0.6-1.4c0-0.6,0.2-1.1,0.6-1.5c0.4-0.4,1-0.6,1.6-0.5
			c0.2,0,0.4,0,0.7,0.1c0.3,0.1,0.5,0.1,0.7,0.3c-0.1,0.2-0.1,0.4-0.2,0.6h-0.1c-0.1-0.2-0.3-0.3-0.4-0.4c-0.2-0.1-0.4-0.2-0.6-0.2
			c-0.4,0-0.7,0.2-1,0.4c-0.3,0.3-0.4,0.8-0.4,1.2c0,0.4,0.1,0.9,0.4,1.2c0.3,0.3,0.6,0.4,1,0.4C213.8,66.7,213.9,66.7,214.1,66.7z"
			/>
		<path class="st2" d="M215.8,67.1c0-0.3,0-0.7,0-1.3v-1.2c0-0.5,0-1,0-1.4c0.4,0,0.7,0,1.1,0c0.3,0,0.7,0,1,0c0,0.1,0,0.2,0,0.2
			s0,0.1,0,0.2c-0.5,0-1,0-1.3,0v1.2h0.3c0.3,0,0.6,0,0.9,0c0,0.1,0,0.2,0,0.2s0,0.1,0,0.2c-0.3,0-0.6,0-0.9,0h-0.4v1.4h0.3
			c0.3,0,0.6,0,1,0c0,0.1,0,0.2,0,0.2s0,0.1,0,0.2c-0.5,0-1,0-1.3,0S216.2,67,215.8,67.1z"/>
		<path class="st2" d="M218.9,67c-0.1,0-0.2,0-0.3,0c-0.1,0-0.2,0-0.2,0c0.2-1.2,0.4-2.5,0.6-3.9h0.2h0.2c0.5,1.1,0.9,2,1.3,2.7
			c0.5-0.9,0.9-1.8,1.3-2.7h0.2h0.2c0.1,1.3,0.3,2.6,0.6,3.9c-0.2,0-0.3,0-0.5,0c-0.2,0-0.3,0-0.5,0c0-0.9-0.1-1.8-0.2-2.6
			c-0.7,1.4-1.1,2.3-1.2,2.6h-0.1h-0.1c-0.1-0.4-0.6-1.2-1.2-2.5C219,65.6,219,66.4,218.9,67z"/>
		<path class="st2" d="M223.6,67.1c0-0.3,0-0.7,0-1.3v-1.2c0-0.5,0-1,0-1.4c0.4,0,0.7,0,1.1,0c0.3,0,0.7,0,1,0c0,0.1,0,0.2,0,0.2
			c0,0.1,0,0.2,0,0.2c-0.5,0-1,0-1.3,0v1.2h0.3c0.3,0,0.6,0,0.9,0c0,0.1,0,0.2,0,0.2s0,0.1,0,0.2c-0.3,0-0.6,0-0.9,0h-0.4v1.4h0.3
			c0.3,0,0.6,0,1,0c0,0.1,0,0.2,0,0.2c0,0.1,0,0.2,0,0.2c-0.5,0-1,0-1.3,0S223.9,67,223.6,67.1z"/>
		<path class="st2" d="M226.4,67c0-0.5,0.1-1.3,0.1-2.4c0-0.5,0-1-0.1-1.5h0.3h0.3c0.4,0.5,1.2,1.4,2.4,2.6v-1c0-0.3,0-0.8,0-1.6
			h0.2h0.2c0,0.7,0,1.4,0,2.2v0.8c0,0.3,0,0.6,0,0.9c-0.1,0-0.2,0-0.2,0c-0.1,0-0.2,0-0.2,0c-0.8-0.9-1.6-1.8-2.4-2.7l0,0v1
			c0,0.7,0,1.3,0,1.7c-0.1,0-0.2,0-0.2,0C226.6,67,226.5,67,226.4,67z"/>
		<path class="st2" d="M230.4,63.7c0-0.1,0-0.2,0-0.2s0-0.1,0-0.2c0.5,0,1,0,1.4,0s0.9,0,1.4,0c0,0.2,0,0.3,0,0.5c-0.4,0-0.7,0-1,0
			v0.2c0,1.3,0,2.3,0,3.2c-0.1,0-0.3,0-0.4,0c-0.1,0-0.3,0-0.4,0c0-0.8,0-1.9,0-3.2v-0.3C231.1,63.6,230.7,63.6,230.4,63.7z"/>
		<path class="st2" d="M202.8,72c0.1-0.2,0.1-0.5,0.2-0.7h0.1c0,0.2,0.1,0.3,0.3,0.4c0.1,0.1,0.3,0.2,0.4,0.2c0.2,0,0.4,0,0.5-0.2
			c0.1-0.1,0.2-0.2,0.2-0.4c0-0.2-0.1-0.3-0.2-0.4c-0.2-0.1-0.5-0.3-0.7-0.4c-0.2-0.1-0.4-0.3-0.6-0.5c-0.1-0.2-0.2-0.4-0.2-0.6
			c0-0.3,0.1-0.6,0.4-0.9c0.3-0.2,0.6-0.3,0.9-0.3c0.2,0,0.3,0,0.5,0.1c0.1,0,0.3,0.1,0.4,0.2c-0.1,0.2-0.1,0.4-0.2,0.6h-0.1
			c0-0.2-0.1-0.3-0.3-0.4c-0.1-0.1-0.2-0.1-0.4-0.1c-0.1,0-0.3,0-0.4,0.1c-0.1,0.1-0.2,0.2-0.2,0.4c0,0.2,0.1,0.3,0.2,0.4
			c0.2,0.1,0.4,0.3,0.6,0.4c0.2,0.1,0.4,0.3,0.6,0.5c0.1,0.2,0.2,0.4,0.2,0.6c0,0.3-0.1,0.7-0.4,0.9c-0.3,0.3-0.6,0.4-1,0.4
			c-0.2,0-0.3,0-0.5,0C203.1,72.2,203,72.1,202.8,72z"/>
		<path class="st2" d="M205.4,68.4h1.1c0.2,0.6,0.5,1.2,0.8,1.8c0.3-0.6,0.6-1.1,0.8-1.8h0.6c-0.2,0.4-0.4,0.7-0.6,1.1
			c-0.2,0.4-0.4,0.8-0.6,1.1v0.7c0,0.4,0,0.7,0,0.9H207h-0.4c0-0.3,0-0.6,0-0.9v-0.7c-0.1-0.2-0.3-0.6-0.6-1.1
			C205.8,69.1,205.6,68.7,205.4,68.4z"/>
		<path class="st2" d="M209,72c0.1-0.2,0.1-0.5,0.2-0.7h0.1c0,0.2,0.1,0.3,0.3,0.4c0.1,0.1,0.3,0.2,0.4,0.2c0.2,0,0.4,0,0.5-0.2
			c0.1-0.1,0.2-0.2,0.2-0.4c0-0.2-0.1-0.3-0.2-0.4c-0.2-0.1-0.5-0.3-0.7-0.4c-0.2-0.1-0.4-0.3-0.6-0.5c-0.1-0.2-0.2-0.4-0.2-0.6
			c0-0.3,0.1-0.6,0.4-0.9c0.3-0.2,0.6-0.3,0.9-0.3c0.2,0,0.3,0,0.5,0.1c0.1,0,0.3,0.1,0.4,0.2c-0.1,0.2-0.1,0.4-0.2,0.6h-0.1
			c0-0.1-0.1-0.3-0.3-0.4c-0.1-0.1-0.2-0.1-0.4-0.1c-0.1,0-0.3,0-0.4,0.1c-0.1,0.1-0.2,0.2-0.2,0.4c0,0.2,0.1,0.3,0.2,0.4
			c0.2,0.1,0.4,0.3,0.6,0.4c0.2,0.1,0.4,0.3,0.6,0.5c0.1,0.2,0.2,0.4,0.2,0.6c0,0.3-0.1,0.7-0.4,0.9c-0.3,0.3-0.6,0.4-1,0.4
			c-0.2,0-0.3,0-0.5,0C209.3,72.2,209.2,72.1,209,72z"/>
		<path class="st2" d="M211.6,68.8c0-0.1,0-0.2,0-0.2s0-0.1,0-0.2c0.5,0,1,0,1.4,0s0.9,0,1.4,0c0,0.1,0,0.2,0,0.2c0,0.1,0,0.2,0,0.2
			c-0.4,0-0.7,0-1,0V69c0,1.3,0,2.3,0,3.2h-0.4h-0.4c0-0.8,0-1.9,0-3.2v-0.2C212.3,68.8,212,68.8,211.6,68.8z"/>
		<path class="st2" d="M215.1,72.2c0-0.3,0-0.7,0-1.3v-1.2c0-0.5,0-1,0-1.4c0.4,0,0.7,0,1.1,0c0.3,0,0.7,0,1,0c0,0.1,0,0.2,0,0.2
			s0,0.1,0,0.2c-0.5,0-1,0-1.3,0V70h0.3c0.3,0,0.6,0,0.9,0c0,0.1,0,0.2,0,0.2s0,0.1,0,0.2c-0.3,0-0.6,0-0.9,0h-0.4v1.4h0.3
			c0.3,0,0.6,0,1-0.1c0,0.1,0,0.2,0,0.2s0,0.1,0,0.2h-1.3C215.7,72.2,215.4,72.2,215.1,72.2z"/>
		<path class="st2" d="M218.2,72.2h-0.3h-0.2c0.2-1.2,0.4-2.5,0.6-3.9h0.4c0.5,1.1,0.9,2,1.3,2.7c0.5-0.9,0.9-1.8,1.3-2.7h0.5
			c0.1,1.4,0.3,2.7,0.5,3.9h-0.5h-0.5c0-0.9-0.1-1.7-0.2-2.6c-0.7,1.4-1.1,2.3-1.2,2.6h-0.1h-0.1c-0.1-0.4-0.6-1.2-1.2-2.5
			C218.2,70.8,218.2,71.6,218.2,72.2z"/>
		<path class="st2" d="M222.6,72c0.1-0.2,0.1-0.5,0.1-0.7h0.1c0,0.2,0.1,0.3,0.3,0.4c0.1,0.1,0.3,0.2,0.5,0.2c0.2,0,0.4-0.1,0.5-0.2
			c0.1-0.1,0.2-0.2,0.2-0.4c0-0.2-0.1-0.3-0.2-0.4c-0.2-0.1-0.5-0.3-0.7-0.4c-0.2-0.1-0.4-0.3-0.6-0.5c-0.3-0.5-0.2-1.1,0.2-1.5
			c0.3-0.2,0.6-0.3,0.9-0.3c0.2,0,0.3,0,0.5,0.1c0.1,0,0.3,0.1,0.4,0.2c-0.1,0.2-0.1,0.4-0.2,0.6h-0.1c0-0.2-0.1-0.3-0.3-0.4
			c-0.1-0.1-0.2-0.1-0.4-0.1c-0.1,0-0.3,0-0.4,0.1c-0.1,0.1-0.2,0.2-0.2,0.4c0,0.2,0.1,0.3,0.2,0.4c0.2,0.1,0.4,0.3,0.6,0.4
			c0.2,0.1,0.4,0.3,0.6,0.5c0.1,0.2,0.2,0.4,0.2,0.7c0,0.3-0.1,0.7-0.4,0.9c-0.3,0.3-0.6,0.4-1,0.4c-0.2,0-0.3,0-0.5,0
			C223,72.2,222.8,72.1,222.6,72z"/>
		<rect x="6.6" y="16.2" class="st3" width="174.5" height="59.8"/>
		<path class="st4" d="M133.9,86.5h0.1c4.4,0,8.8-0.6,13-1.9c4.6-1.6,8.5-4.6,11.2-8.5c4.2-6.2,8-18.1,8.2-30l0,0
			c-0.2-11.9-4-23.8-8.2-30c-2.7-4-6.6-6.9-11.1-8.5c-8.6-2.5-17.8-2.5-26.3,0c-4.5,1.6-8.4,4.6-11.1,8.5c-4.2,6.2-8,18.1-8.2,30
			l0,0c0.2,11.9,4,23.8,8.2,30c2.7,4,6.6,6.9,11.1,8.5C125,85.9,129.4,86.5,133.9,86.5L133.9,86.5z"/>
		<path class="st5" d="M163.9,46.1c-0.1,8.8-1.8,17.5-5.2,25.6c-2.9,6.6-7.4,10.6-13.9,12.4c-7.2,1.8-14.8,1.8-22,0
			c-6.5-1.8-11-5.8-13.9-12.4c-3.4-8.1-5.1-16.8-5.2-25.6c0.1-8.8,1.8-17.5,5.2-25.6c2.9-6.6,7.3-10.6,13.9-12.4
			c7.2-1.8,14.8-1.8,22,0c6.5,1.8,11,5.8,13.9,12.4C162.1,28.6,163.9,37.3,163.9,46.1"/>
		<path class="st4" d="M134,16.3c3.1,0,6.1,0.4,9.1,1.2c3,0.8,5.5,3,6.8,5.9c2.8,5.9,4.6,14.4,4.6,22.7s-1.8,16.8-4.6,22.7
			c-1.3,2.9-3.8,5-6.8,5.9c-3,0.8-6,1.2-9.1,1.2h-0.1c-3.1,0-6.1-0.4-9.1-1.2c-3-0.8-5.6-3-6.8-5.9c-2.7-5.9-4.5-14.4-4.5-22.7
			s1.8-16.8,4.5-22.7c1.3-2.9,3.8-5,6.8-5.9c3-0.8,6-1.2,9.1-1.2L134,16.3z"/>
		<path class="st5" d="M138.4,27.7c-0.2-0.3-0.4-0.6-0.5-0.9"/>
		<rect x="118.8" y="44.5" class="st5" width="10.3" height="3"/>
		<path class="st5" d="M126.8,70.4c-0.2-0.3-0.3-0.7-0.3-1.1h5.9c-0.1,0.9-0.5,1.7-1.2,2.2c-0.9,0.6-2.1,0.7-3.1,0.2
			C127.5,71.4,127.1,71,126.8,70.4"/>
		<path class="st5" d="M133.1,68.1H130v-1.5h3.2l1-1.2l1,1.2h3.2v1.5h-3.2v3.6h-2L133.1,68.1z"/>
		<path class="st5" d="M133.5,63.5c0.6-0.2,1.6-0.6,1.8-1.2c0.1-0.9,0.5-1.8,1.1-2.5c0.2-0.3,0.3-0.6,0.2-0.9c1.1,0.1,2,0.8,2.4,1.8
			c0.6,1.6-0.1,3.4-1.7,4.1c-0.6,0.2-1.2,0.3-1.8,0.2C134.7,64.7,134,64.2,133.5,63.5"/>
		<path class="st5" d="M125.9,50.4c-0.6-0.3-1.4-0.4-2-0.1c-0.6,0.2-1,0.7-1.1,1.3c0,1.8,0,2.3,0,4.3c0,0.3-0.2,0.5-0.6,0.5
			s-0.6-0.2-0.6-0.5v-4.4c0-0.5-0.1-0.9-0.4-1.3L119,51l-0.2,0.1c0.6,0.4,0.8,0.4,0.9,1.2v5.6v0.3l0.1,0.2l0.1,0.2l0.1,0.2
			c0.3,0.5,0.9,0.9,1.4,1c0.2,0.1,0.5,0.1,0.7,0.1c0.6,0,1.2-0.1,1.7-0.5c0.9-0.7,0.7-2,0.8-3.9c-0.1-0.4,0.1-0.8,0.4-1.1
			c0.3-0.2,0.7-0.3,1-0.2c0.3,0.1,0.6,0.2,0.8,0.4C126.8,52.9,126.9,50.9,125.9,50.4"/>
		<path class="st5" d="M147,57.4c-1.7-1.6-4.5-3.9-4.8-4.9c-0.2-0.7-0.2-1.4-0.2-2.2c0.5-0.4,0.9-0.7,1.5-1.2
			c-0.1,1.2-0.2,2.3,0.3,3c1.4,1.3,2.6,2.6,3.8,3.8c0.5,0.5,0.7,1.2,0.5,1.8c-0.1,0.4-0.3,0.7-0.6,1C147.6,58.3,147.4,57.8,147,57.4
			"/>
		<path class="st5" d="M137.6,49.1c1.3,0,1.7,0,3,0V58h-3V49.1z"/>
		<path class="st5" d="M144.3,50c0.3-0.3,0.4-0.5,0.8-0.8l0.8,0.9v2.5c1.1-0.5,0.8-2,0.8-3.3c0.6,0.5,1,0.8,1.6,1.4
			c0.3,1.5-0.6,2.4-1.2,3.4l-2.7-2.5V50z"/>
		<path class="st5" d="M146.7,43.2l0.4-1.7l1.3-0.2v-4.2c-0.5,0.1-0.7,0.1-1.1,0.2v-3.2c-0.7,0.1-1.4,0.4-2.1,0.5v5.3
			c0,0.3-0.4,0.3-0.5,0.3h-0.1c-0.3,0-0.5-0.2-0.5-0.4v-5.1l-2.1,0.3v2.1c-0.8,1.5-1.8,2.9-2.9,4.2c1.1,0.1,1.2,0.1,2.3,0.2l0.7,1.5
			H146.7z"/>
		<path class="st5" d="M122.9,42.1c0-1.4-0.1-2.3-0.1-3.7c0.4-0.1,0.9,0.1,1.2,0.4c-0.1,1.7-0.1,1.7-0.1,3.5h-1L122.9,42.1z"/>
		<path class="st5" d="M122.7,34.2c-0.2-1.4-0.2-1.5-0.4-2.5h-0.9v-1h3.8v1h-0.9l-0.4,3.2C123.6,34.6,123.2,34.3,122.7,34.2"/>
		<path class="st5" d="M122.6,30.1c-1.3-1.4-1.4-3.4-1.1-5.3l0,0c0.2,0.7,0.7,1.2,1.4,1.5c-0.1-0.4-0.4-0.7-0.5-1.1
			c-0.3-0.8-0.2-1.7,0.2-2.5c0.3-0.5,0.8-0.8,1.4-0.9c-0.2,0.6-0.2,1.4,0,2c0.2-0.2,0.4-0.4,0.7-0.6l0.2-0.2
			c0.7,1.2,0.9,2.5,0.8,3.9l-0.2,0.5c-0.1-0.9-0.2-1.3-0.8-1.6c-0.1,0.5,0.2,0.9,0.3,1.6c0.3,0.9,0.1,2-0.6,2.7L122.6,30.1z"/>
		<path class="st5" d="M138.4,27.7l-1.3,1.5c-0.4-0.3-0.4-0.4-0.8-0.8l1.5-1.6"/>
		<path class="st5" d="M140.1,24.2c0.3-1.3,0.4-2.7,1.8-3.2c0.6-0.2,1.2-0.1,1.7,0.3c0.6,0.4,0.8,1.1,0.6,1.8
			c-0.4,1.5-2,1.7-3.4,2.1L140.1,24.2z"/>
		<polygon class="st5" points="149.3,44.5 149.3,47.5 139,47.5 139,44.5 		"/>
		<path class="st5" d="M124.4,64.6c-0.4-1.9,1.9-2.6,2.4-4.2c0.4-2.7,0.6-5.4,2.4-7.5c0.1-3.8,1.6-7.4,4.2-10.2
			c-0.2-0.8-0.4-1.7-0.8-2.5c-0.4,0-0.7-0.1-0.9-0.4c-0.2-0.3-0.4-0.6-0.4-1c-1,1.3-2.1,2.4-3.5,3.3c-0.2,0.1-0.5-0.2-1-0.6
			c-1.6-1.3-1.9-4.1-4.3-4c-1.1-0.4-1.1-1.7-1.2-2.7c0.5-0.3,1.1-0.3,1.6-0.1c1.5,0.8,2.5,2.5,4,3.7c0.3,0.3,0.7,0.6,1.1,0.9
			c1-0.7,1.8-1.7,2.4-2.8c0.4-0.7,1.2-1,2-1l0.6-0.7l-0.3-1.7c-0.6-0.8-1.1-1.6-1.5-2.4c0.2-1,0.3-2.1,1.3-2.7
			c0.6-0.4,1.2,0.5,1.7-0.1c0.4-0.1,0.7,0,1,0.2c0.5,0.7,0.8,1.4,0.9,2.2c-0.3,0.8-0.6,1.5-1,2.3c-0.1,0.2-0.3,0.2-0.5,0.3
			c0.1,0.4,0.2,0.7,0.4,1c0.3,0.1,0.6,0.1,0.9,0c0.4-0.8,1.1-1.3,2-1.5l1.7-1.1c-0.3-1.3,0.6-2.4,0.1-3.7c-0.8-0.5-1.4-1.4-1.5-2.4
			c0.2-0.6,0.4-1.1,0.8-1.6l0.1,0.1c1,1,1.7,2.2,2.1,3.5c0.2,1.8,0.3,3.5,0.2,5.3c-1,0.8-2,1.5-3.1,2.1l-0.8,1.5
			c-0.1,1.5-0.6,2.9-0.8,4.4c0.7,1.8,1.4,4.2,0.9,5.9c-0.5,0.9-1.2,1.6-2.1,2.1l-1.7,1.4c1.8,1.9,1.3,4.1,1.4,6.9
			c0,0.7,1.2,1.2,0.6,2s-1.4,1.6-1.2,2.7c-0.6,0.7-1.5,1.1-2.4,1.1c-0.1,0-0.2-0.1-0.2-0.2c0,0,0,0,0,0c0.2-0.4,0.4-0.9,0.7-1.3
			c0.6-1,0.3-2.3,1.1-3.2c-0.6-2.1-1.6-4-1.9-6.2v-0.1c-0.4,0.9-0.4,1.9,0,2.8c-1.7,2.2-3.6,4.3-3.6,7.1c-0.9,1.2-1.6,2.5-2.3,3.9
			c-0.2,0.2-0.5,0-0.7-0.1C124.8,65.5,124.5,65.1,124.4,64.6"/>
		<path class="st5" d="M143.3,55.2c1.7,1.6,4.5,3.9,4.8,4.9c0.2,0.7,0.2,1.4,0.2,2.2c-0.5,0.4-0.9,0.7-1.4,1.2c0-1.1,0.2-2.3-0.4-3
			l-3.8-3.8c-0.5-0.4-0.7-1.2-0.5-1.8c0.1-0.4,0.3-0.7,0.5-1C142.7,54.4,142.9,54.9,143.3,55.2"/>
		<path class="st5" d="M146,62.7c-0.3,0.3-0.4,0.5-0.8,0.8l-0.8-0.9v-2.5c-1.1,0.5-0.8,2-0.8,3.3c-0.6-0.5-0.9-0.8-1.6-1.4
			c-0.3-1.5,0.6-2.4,1.2-3.4l2.7,2.5V62.7z"/>
		<path class="st5" d="M141.5,70.4c0.2-0.3,0.3-0.7,0.3-1.1H136c0,0.9,0.5,1.7,1.2,2.2c0.9,0.6,2.1,0.7,3.1,0.2
			C140.8,71.4,141.3,71,141.5,70.4"/>
		<path class="st4" d="M135,83.3c0-1.6,1.6-2.5,2.6-3.6c0.3-0.3,0.4-0.8,0.2-1.2c-0.1-0.2-0.3-0.4-0.5-0.4c-0.3-0.1-0.6,0-0.9,0.2
			c-0.3,0.3-0.4,0.7-0.4,1.1l-1.1,0.1c-0.1-0.6,0-1.2,0.4-1.7c0.6-0.5,1.3-0.8,2.1-0.7c1.1,0.1,1.9,1.1,1.7,2.2c0,0.4-0.2,0.7-0.5,1
			c-0.7,0.7-1.5,1.1-2.1,1.9l2.8-0.2c0,0.3,0,0.7,0.1,1L135,83.3z"/>
		<path class="st4" d="M124.9,76.2L124.9,76.2l-1.8,5.6l-1.2-0.4l1.3-3.9v-0.1c-0.5-0.2-1-0.3-1.5-0.5l0.2-0.7
			c0.6,0.2,1.2,0.2,1.7-0.2c0.1-0.1,0.2-0.2,0.3-0.3L124.9,76.2z"/>
		<path class="st4" d="M145.9,80.5c-0.4,0.4-1,0.5-1.5,0.4c-0.3-0.1-0.5-0.3-0.6-0.6c-0.1-0.4,0-0.8,0.3-1c0.2-0.1,0.4-0.2,0.6-0.2
			c0.2,0,0.4,0,0.6,0c0.4,0.1,0.7,0.4,0.8,0.8C146.2,80,146.1,80.3,145.9,80.5 M143.4,77.8c-0.2-0.3-0.1-0.7,0.1-0.9
			c0.2-0.2,0.4-0.3,0.6-0.3c0.2-0.1,0.5-0.1,0.7,0c0.3,0.1,0.5,0.4,0.5,0.8c0,0.2-0.1,0.4-0.2,0.5c-0.2,0.1-0.4,0.2-0.6,0.3
			c-0.2,0.1-0.4,0.1-0.6,0C143.7,78.1,143.5,78,143.4,77.8 M147.3,79.4c-0.1-0.6-0.5-1-1.1-1.2l-0.4-0.1c0.4-0.3,0.7-0.8,0.6-1.3
			c-0.1-0.5-0.5-1-1-1.2c-1-0.2-2.1,0-2.9,0.7c-0.4,0.4-0.5,1-0.4,1.5c0.2,0.5,0.6,0.8,1.1,0.9L143,79c-0.4,0.4-0.6,1-0.4,1.5
			c0.2,0.6,0.6,1.1,1.2,1.3c0.5,0.1,1,0.1,1.6,0c0.5-0.1,1-0.4,1.4-0.7C147.3,80.7,147.5,80,147.3,79.4"/>
		<path class="st4" d="M130.4,82.1c-0.2,0.1-0.5,0.2-0.8,0.2c-0.3,0-0.5-0.1-0.8-0.2c-0.2-0.2-0.4-0.4-0.4-0.7
			c0-0.4,0.2-0.8,0.6-0.9c0.2-0.1,0.4-0.1,0.6-0.1c0.2,0,0.4,0.1,0.6,0.2c0.5,0.2,0.7,0.8,0.4,1.2C130.6,81.9,130.5,82,130.4,82.1
			 M128.8,78.8c-0.1-0.3,0.1-0.7,0.4-0.8c0.2-0.1,0.4-0.2,0.7-0.1c0.2,0,0.4,0.1,0.6,0.2c0.3,0.2,0.4,0.6,0.3,0.9
			c-0.1,0.2-0.2,0.3-0.4,0.4c-0.2,0.1-0.4,0.1-0.6,0.1c-0.2,0-0.4-0.1-0.6-0.2C129,79.2,128.9,79,128.8,78.8 M132,81.5
			c0.1-0.6-0.2-1.1-0.7-1.4l-0.3-0.2c0.5-0.1,0.9-0.6,0.9-1.1c0.1-0.6-0.2-1.1-0.6-1.4c-0.4-0.3-0.9-0.4-1.5-0.4
			c-0.5-0.1-1,0-1.5,0.2c-0.5,0.3-0.8,0.8-0.8,1.3c0,0.5,0.3,1,0.8,1.2l-0.3,0.1c-0.5,0.3-0.8,0.8-0.8,1.3c0,0.6,0.3,1.3,0.8,1.6
			c0.5,0.3,1,0.4,1.5,0.4c0.5,0,1-0.1,1.5-0.3C131.6,82.8,132,82.2,132,81.5"/>
		<rect x="152.7" y="24.2" transform="matrix(0.9182 -0.3962 0.3962 0.9182 2.9199 63.6954)" class="st4" width="6" height="1.2"/>
		<path class="st4" d="M137.9,14.7l-1.4-6.2l1.3,0.1c0.3,1.5,0.5,3.3,0.8,4.5c0.6-1.2,1.2-2.8,1.7-4.3l1.3,0.1l-2.6,5.8L137.9,14.7z
			"/>
		<polygon class="st4" points="114.5,18.2 113.2,20.6 112.1,20 113.6,17.2 112.7,16.7 110.6,20.6 115.8,23.5 118,19.6 117.1,19.2 
			115.6,21.9 114.1,21.1 115.4,18.7 		"/>
		<path class="st4" d="M110.6,46.3h-1.7c0-1.3-0.2-2.1,0.6-2.3c0.3-0.1,0.6,0,0.8,0.2C110.7,44.6,110.6,45.1,110.6,46.3 M108,46.3
			h-1.5c0-1.4-0.2-2.1,0.7-2.2c0.5,0,0.6,0.1,0.8,0.4C108,45.1,108,45.7,108,46.3 M111.4,43.6c-0.3-0.6-1-1-1.7-0.9
			c-0.6,0.1-1.1,0.5-1.3,1.1c-0.1-0.5-0.5-0.8-1-0.9c-0.6-0.1-1.1,0.1-1.5,0.6c-0.4,0.5-0.2,2.7-0.3,4h5.9v-0.4
			C111.6,44.8,111.7,44.5,111.4,43.6"/>
		<polygon class="st4" points="158.7,27.5 159.6,27.2 160.9,31.9 159.9,32.2 159.5,30.5 154.6,31.7 154.3,30.5 159.1,29.2 		"/>
		<path class="st4" d="M128.5,15c-0.6,0.1-1.3,0-1.9-0.3c-0.4-0.2-0.7-0.6-0.7-1.1l-0.7-4.3l1.2-0.2l0.7,4.3
			c0.1,0.3,0.4,0.6,0.7,0.6c0.2,0,0.4,0,0.6,0"/>
		<path class="st4" d="M128.5,15c0.7-0.1,1.3-0.4,1.7-0.9c0.3-0.3,0.5-0.8,0.4-1.2l-0.7-4.3l-1.2,0.2l0.7,4.3c0,0.3-0.2,0.7-0.5,0.8
			c-0.2,0.1-0.3,0.2-0.5,0.2"/>
		<path class="st4" d="M158,37.9l-0.2-1.5l2.6,0.4l0,0L158,37.9z M161.5,36l-6.2-1.2l0.2,1.2l1.4,0.2l0.3,2.1l-1.2,0.6l0.2,1.2
			l5.6-2.9L161.5,36z"/>
		<path class="st4" d="M160.6,46.3h0.1h0.1h0.1c0.4-0.3,0.5-0.7,0.5-1.2c0-0.4-0.2-0.8-0.6-1c-0.2-0.1-0.5,0-0.6,0.1
			c-0.7,1-0.2,3.1-2,3.5c-0.7,0.1-1.4-0.2-1.8-0.8c-0.6-1.1-0.6-2.3,0-3.4c0.3-0.6,1-0.9,1.6-0.9l0.1,1.2c-0.4,0-0.7,0.3-0.9,0.6
			c-0.3,0.6-0.2,1.4,0.2,1.9c0.2,0.2,0.5,0.2,0.7,0.1c0.7-0.5,0.6-1.7,0.9-2.6c0.3-0.8,1.2-1.3,2-1c0.2,0.1,0.5,0.2,0.6,0.4
			c0.7,0.9,0.9,2.1,0.5,3.1c-0.3,0.7-0.9,1.1-1.6,1.1L160.6,46.3L160.6,46.3z"/>
		<path class="st4" d="M112.4,37.2c-0.1,0.7-0.4,1.3-0.9,1.7c-0.3,0.3-0.8,0.4-1.2,0.4l-4.3-0.7l0.2-1.2l4.3,0.7
			c0.3,0,0.7-0.2,0.8-0.5c0.1-0.2,0.2-0.3,0.2-0.5"/>
		<path class="st4" d="M112.4,37.2c0.1-0.6,0-1.3-0.3-1.9c-0.2-0.4-0.6-0.7-1.1-0.7l-4.3-0.7l-0.2,1.2l4.3,0.7
			c0.3,0.1,0.6,0.4,0.6,0.7c0,0.2,0,0.4,0,0.6"/>
		<path class="st4" d="M119.8,15.5l-0.7-2.5l0,0l0,0l1.9,1.7L119.8,15.5z M119,11.6l-1.1,0.7l1.3,6.2l1.1-0.6l-0.3-1.3l1.8-1.1
			l1,0.9l1-0.6L119,11.6z"/>
		<polygon class="st4" points="148.1,13.6 145.6,12.5 146.1,11.3 148.9,12.6 149.3,11.6 145.3,9.9 143,15.5 147,17.2 147.4,16.2 
			144.5,15 145.1,13.5 147.7,14.5 		"/>
		<path class="st4" d="M110.4,29l-1.5-0.4c0.3-1,0.5-2,1.2-2c0.3,0,0.5,0.1,0.7,0.3C111.1,27.2,110.7,28,110.4,29 M111.6,26.9
			c0.1-0.4-0.1-0.8-0.4-1.1c-0.4-0.3-0.9-0.5-1.4-0.5c-1.3,0.2-1.5,1.7-2.2,4.2l5.7,1.7l0.3-1.2l-2.3-0.7h-0.1
			c0.1-0.5,0.3-0.9,0.5-1.4c0.4-1,1.9,0,2.5-0.1l0.4-1.2C113.8,26.7,112.4,25.7,111.6,26.9"/>
		<path class="st4" d="M154.4,18.6c-0.2,0.2-0.4,0.3-0.7,0.3c-0.4,0-0.9-0.7-1.5-1.5l1.2-1C154.1,17.4,154.8,18.1,154.4,18.6
			 M153.5,14.9l-4.8,3.6l0.8,1l1.9-1.4l0.1-0.1c0.3,0.4,0.6,0.8,0.8,1.2c0.5,0.9-1.1,1.6-1.4,2.1l0.8,1c0.6-0.9,2.1-1.4,1.6-2.7
			c0.3,0.3,0.7,0.4,1.1,0.3c0.5-0.1,0.9-0.4,1.2-0.8C156.1,18,155,17,153.5,14.9"/>
		<path class="st5" d="M15.4,34.5V27h1.8v7.5L15.4,34.5z"/>
		<path class="st5" d="M19.4,32v0.5c0,0.2,0,0.4,0.2,0.6c0.1,0.2,0.3,0.2,0.5,0.2c0.2,0,0.3-0.1,0.4-0.2c0.1-0.2,0.2-0.3,0.1-0.5
			c0-0.2-0.1-0.5-0.2-0.6c-0.2-0.2-0.5-0.4-0.7-0.5c-0.3-0.2-0.6-0.4-0.8-0.5c-0.2-0.1-0.4-0.3-0.5-0.5c-0.2-0.2-0.3-0.4-0.4-0.6
			c-0.1-0.3-0.1-0.6-0.1-0.8c0-0.6,0.2-1.2,0.6-1.6c0.5-0.4,1-0.6,1.6-0.5c0.6,0,1.2,0.2,1.7,0.7c0.4,0.5,0.6,1.1,0.6,1.8h-1.6
			c0-0.3,0-0.5-0.1-0.8c-0.1-0.2-0.3-0.3-0.5-0.3c-0.2,0-0.3,0-0.5,0.1c-0.1,0.1-0.2,0.2-0.2,0.4v0.1c0,0.2,0,0.3,0.1,0.4
			c0.1,0.1,0.2,0.3,0.4,0.4c0.4,0.3,0.8,0.5,1,0.6c0.2,0.1,0.5,0.3,0.7,0.5c0.2,0.2,0.4,0.4,0.5,0.7c0.1,0.3,0.2,0.7,0.2,1.1
			c0,0.6-0.2,1.2-0.6,1.7c-0.5,0.4-1.1,0.6-1.7,0.6c-0.6,0-1.2-0.1-1.7-0.5c-0.4-0.3-0.6-0.8-0.6-1.3V32H19.4z"/>
		<path class="st5" d="M27.8,32.1c0,0.7-0.1,1.4-0.5,1.9c-0.5,0.5-1.2,0.7-1.8,0.6c-0.7,0.1-1.4-0.2-1.9-0.6
			c-0.4-0.5-0.6-1.2-0.6-1.9V29c0-0.6,0.2-1.2,0.6-1.6c0.5-0.4,1.1-0.6,1.8-0.6c0.6,0,1.3,0.2,1.8,0.6c0.4,0.4,0.7,1,0.6,1.6V32.1z
			 M26,29.2c0-0.3,0-0.5-0.1-0.7c-0.1-0.2-0.3-0.3-0.5-0.3c-0.2,0-0.4,0.1-0.5,0.3c-0.1,0.2-0.1,0.5-0.1,0.7v3.1
			c0,0.3,0,0.5,0.1,0.8c0.1,0.2,0.3,0.3,0.5,0.3c0.2,0,0.4-0.1,0.5-0.3c0.1-0.2,0.1-0.5,0.1-0.8V29.2z"/>
		<path class="st5" d="M32.7,32.7c0,0.2,0,0.4,0.1,0.5c0.1,0.1,0.3,0.2,0.4,0.2c0.2,0,0.4-0.1,0.5-0.3c0.1-0.2,0.1-0.5,0.1-0.7v-0.8
			c-0.2,0.1-0.3,0.2-0.5,0.3C33,32,32.8,32,32.6,32c-0.5,0.1-1-0.2-1.3-0.6c-0.2-0.5-0.4-1.1-0.3-1.6c-0.1-0.7,0.1-1.4,0.5-2.1
			c0.4-0.5,1.1-0.7,1.8-0.7c0.6-0.1,1.3,0.2,1.7,0.7c0.4,0.6,0.5,1.3,0.5,2v2c0,0.8-0.1,1.5-0.4,2.2c-0.3,0.6-1,0.9-1.7,0.8
			c-0.6,0-1.2-0.1-1.7-0.4c-0.4-0.4-0.6-0.9-0.6-1.5H32.7z M32.7,29.6c0,0.3,0,0.6,0.1,0.9c0.1,0.2,0.2,0.3,0.5,0.3
			c0.2,0,0.4-0.1,0.4-0.3c0.1-0.2,0.1-0.4,0.1-0.7v-0.6c0-0.2,0-0.5-0.1-0.7c-0.1-0.2-0.5-0.3-0.7-0.2c-0.1,0.1-0.2,0.1-0.2,0.3
			c-0.1,0.3-0.1,0.5-0.1,0.8V29.6z"/>
		<path class="st5" d="M36,29.1c0-0.6,0.2-1.2,0.6-1.6c0.5-0.4,1-0.5,1.6-0.5c0.6-0.1,1.3,0.1,1.8,0.6c0.4,0.6,0.5,1.3,0.5,1.9v2.7
			c0.1,0.7-0.1,1.3-0.5,1.8c-0.5,0.4-1.1,0.6-1.7,0.6c-0.6,0-1.2-0.1-1.7-0.5c-0.4-0.4-0.6-1-0.5-1.6V29.1z M38.8,29.1
			c0-0.2,0-0.4-0.1-0.6c-0.1-0.2-0.2-0.3-0.5-0.3s-0.4,0.1-0.5,0.2c-0.1,0.2-0.1,0.4-0.1,0.6v3.4c0,0.2,0,0.5,0.1,0.7
			c0.1,0.2,0.3,0.3,0.5,0.2c0.2,0,0.4-0.1,0.5-0.3c0.1-0.2,0.1-0.4,0.1-0.7L38.8,29.1z"/>
		<path class="st5" d="M41,29.1c-0.1-0.6,0.1-1.2,0.6-1.6c0.5-0.4,1-0.5,1.6-0.5c0.6-0.1,1.3,0.1,1.8,0.6c0.4,0.6,0.5,1.3,0.5,1.9
			v2.7c0.1,0.7-0.1,1.3-0.5,1.8c-0.5,0.4-1.1,0.6-1.7,0.6c-0.6,0-1.2-0.1-1.7-0.5c-0.4-0.4-0.6-1-0.5-1.6V29.1z M43.8,29.1
			c0-0.2,0-0.4-0.1-0.6c-0.1-0.2-0.2-0.3-0.5-0.3s-0.4,0.1-0.5,0.2c-0.1,0.2-0.1,0.4-0.1,0.6v3.4c0,0.2,0,0.5,0.1,0.7
			c0.1,0.2,0.2,0.2,0.5,0.2c0.2,0,0.4-0.1,0.5-0.3c0.1-0.2,0.1-0.4,0.1-0.7L43.8,29.1z"/>
		<path class="st5" d="M47.6,29.4H46v-1.1c0.4,0,0.9-0.1,1.3-0.3c0.4-0.1,0.6-0.5,0.7-0.9h1.1v7.3h-1.6V29.4z"/>
		<path class="st5" d="M18.2,59.6v-0.5c0-0.6-0.2-1-0.6-1c-0.2,0-0.4,0.1-0.5,0.2C17,58.5,17,58.8,17,59v3.7c0,0.2,0,0.4,0.1,0.5
			c0.1,0.1,0.3,0.2,0.5,0.2c0.2,0,0.4-0.1,0.5-0.3c0.1-0.2,0.1-0.5,0.1-0.8v-0.7H20v0.9c0,0.6-0.2,1.2-0.6,1.6
			c-0.5,0.4-1.2,0.6-1.9,0.6c-0.6,0.1-1.3-0.2-1.7-0.6c-0.4-0.5-0.6-1.1-0.5-1.8v-3.1c-0.1-0.7,0.2-1.3,0.6-1.8
			c0.5-0.4,1.1-0.6,1.8-0.6c0.6,0,1.3,0.1,1.8,0.5c0.5,0.4,0.7,1,0.6,1.7v0.6L18.2,59.6z"/>
		<path class="st5" d="M22.4,62v1c0,0.1,0,0.3,0.1,0.4c0.1,0.1,0.2,0.2,0.4,0.2c0.2,0,0.4-0.1,0.5-0.2c0.1-0.2,0.1-0.5,0.1-0.7H25
			c0.2,1-0.5,2-1.6,2.1c-0.2,0-0.4,0-0.5,0c-0.5,0-1.1-0.1-1.5-0.4C21,64,20.7,63.5,20.8,63v-2.3c-0.1-0.6,0.2-1.1,0.6-1.5
			c0.5-0.3,1-0.5,1.6-0.5c0.5,0,1.1,0.1,1.5,0.4c0.4,0.3,0.6,0.7,0.6,1.2V62H22.4z M23.5,61v-0.5c0-0.1,0-0.3-0.1-0.4
			c-0.1-0.1-0.3-0.2-0.4-0.2c-0.2,0-0.3,0.1-0.4,0.2c-0.1,0.2-0.1,0.4-0.1,0.5V61H23.5z"/>
		<path class="st5" d="M27.3,58.9v0.8c0.1-0.3,0.2-0.5,0.5-0.8c0.2-0.2,0.5-0.3,0.8-0.3v1.8h-0.2h-0.2c-0.2,0-0.3,0-0.5,0.1
			c-0.1,0-0.2,0.2-0.2,0.5v3.4h-1.6v-5.6H27.3z"/>
		<path class="st5" d="M28.9,60.1v-1.2h0.6v-1.6h1.6v1.6h0.8v1.2h-0.8V63c0,0.1,0,0.2,0.1,0.3c0.1,0.1,0.2,0.1,0.3,0.1h0.4v1.1
			l-0.5,0.1h-0.5c-0.6,0.1-1.2-0.3-1.3-1c0-0.1,0-0.2,0-0.3v-3.2H28.9z"/>
		<path class="st5" d="M32.7,58.3V57h1.6v1.3H32.7z M32.7,64.5v-5.6h1.6v5.6H32.7z"/>
		<path class="st5" d="M35.7,60.1H35v-1.2h0.6v-0.5c0-0.4,0.1-0.8,0.4-1.1c0.4-0.3,0.8-0.4,1.2-0.3h0.7v1.2h-0.3c-0.1,0-0.2,0-0.2,0
			c-0.1,0-0.1,0.1-0.1,0.1v0.6h0.7v1.2h-0.7v4.4h-1.6V60.1z"/>
		<path class="st5" d="M38.8,58.3V57h1.6v1.3H38.8z M38.8,64.5v-5.6h1.6v5.6H38.8z"/>
		<path class="st5" d="M44,61L44,61l-0.1-0.7c0-0.2-0.2-0.3-0.4-0.3c-0.2,0-0.3,0.1-0.4,0.2c-0.1,0.2-0.1,0.3-0.1,0.5v2.3
			c0,0.2,0,0.3,0.1,0.5c0.1,0.1,0.2,0.2,0.4,0.2c0.1,0,0.3-0.1,0.3-0.2c0.1-0.2,0.1-0.5,0.1-0.8v-0.4h1.5c0,0.2,0,0.4,0,0.7
			c0,0.3-0.1,0.5-0.1,0.8c-0.1,0.3-0.3,0.5-0.5,0.6c-0.3,0.2-0.6,0.3-1,0.3h-0.5c-0.5,0-1-0.1-1.4-0.4c-0.4-0.3-0.6-0.8-0.5-1.3
			v-2.3c-0.1-0.5,0.1-1.1,0.5-1.5c0.4-0.3,0.9-0.5,1.5-0.4c0.6-0.1,1.2,0.1,1.6,0.5c0.4,0.5,0.5,1.1,0.4,1.7H44z"/>
		<path class="st5" d="M49,64c-0.2,0.2-0.4,0.4-0.6,0.5c-0.2,0.1-0.5,0.2-0.8,0.2c-0.4,0-0.8-0.1-1.1-0.4c-0.3-0.3-0.4-0.7-0.4-1.1
			c0-0.5,0.1-0.9,0.4-1.3c0.3-0.3,0.6-0.5,0.9-0.6l1-0.3c0.3-0.1,0.5-0.5,0.4-0.8c0-0.1-0.1-0.1-0.1-0.2c-0.1-0.1-0.2-0.2-0.4-0.2
			c-0.2,0-0.3,0.1-0.4,0.2c-0.1,0.2-0.1,0.4-0.1,0.7h-1.6c0-0.6,0.2-1.1,0.6-1.5c0.5-0.3,1-0.5,1.6-0.5c0.6-0.1,1.2,0.1,1.7,0.4
			c0.4,0.3,0.5,0.8,0.5,1.3v3.4c0,0.1,0,0.2,0,0.3c0,0.1,0.1,0.2,0.1,0.3h-1.5L49,64z M49,61.8L48.5,62c-0.1,0-0.2,0.1-0.3,0.2
			c-0.1,0.1-0.2,0.2-0.2,0.3c-0.1,0.1-0.1,0.3-0.1,0.4c0,0.2,0.1,0.3,0.2,0.4c0.1,0.1,0.3,0.2,0.4,0.2c0.2,0,0.4-0.1,0.5-0.3
			c0.1-0.2,0.1-0.4,0.1-0.6V61.8z"/>
		<path class="st5" d="M51.1,60.1v-1.2h0.6v-1.6h1.6v1.6H54v1.2h-0.8V63c0,0.1,0,0.2,0.1,0.3c0.1,0.1,0.2,0.1,0.3,0.1H54v1.1
			l-0.5,0.1H53c-0.6,0.1-1.2-0.3-1.3-1c0-0.1,0-0.2,0-0.3v-3.2H51.1z"/>
		<path class="st5" d="M54.9,58.3V57h1.6v1.3H54.9z M54.9,64.5v-5.6h1.6v5.6H54.9z"/>
		<path class="st5" d="M57.5,60.7c-0.1-0.5,0.1-1.1,0.5-1.5c0.4-0.3,1-0.5,1.5-0.5c1.4,0,2.1,0.6,2.1,1.9v2.3c0,0.5-0.2,1-0.5,1.3
			c-0.5,0.3-1,0.5-1.5,0.4c-0.5,0-1.1-0.1-1.5-0.4c-0.4-0.3-0.6-0.8-0.6-1.3L57.5,60.7z M59.1,63c0,0.3,0.2,0.5,0.5,0.5
			c0.1,0,0.3,0,0.4-0.1C60,63.3,60,63.1,60,63v-2.5c0-0.2,0-0.3-0.1-0.5c-0.1-0.1-0.2-0.2-0.4-0.2c-0.1,0-0.3,0.1-0.4,0.2
			c-0.1,0.1-0.1,0.3-0.1,0.5L59.1,63z"/>
		<path class="st5" d="M64,58.9v0.7c0.1-0.2,0.2-0.4,0.4-0.6c0.2-0.2,0.4-0.3,0.7-0.3c0.4,0,0.7,0.1,1,0.3c0.3,0.2,0.4,0.5,0.4,0.9
			v4.6H65v-4c0-0.1,0-0.2-0.1-0.3c-0.1-0.1-0.2-0.1-0.3-0.1c-0.3,0-0.4,0.2-0.4,0.5v4h-1.6v-5.6H64z"/>
		<path class="st5" d="M15.3,53.8v-8.3h2.5c0.7,0,1.3,0.1,1.9,0.5c0.5,0.4,0.8,1,0.7,1.7c0,0.3-0.1,0.7-0.2,1
			c-0.2,0.3-0.4,0.6-0.7,0.7c0.4,0.2,0.6,0.5,0.9,0.8c0.2,0.4,0.2,0.8,0.2,1.2c0.1,0.7-0.2,1.4-0.6,1.9c-0.5,0.4-1.2,0.6-1.9,0.6
			H15.3z M17.3,48.8c0.3,0,0.7,0,1-0.2c0.2-0.1,0.3-0.4,0.3-0.8s-0.1-0.6-0.3-0.7C18,47,17.6,47,17.3,47L17.3,48.8z M17.3,52.3
			c0.4,0,0.7,0,1.1-0.1c0.2,0,0.3-0.4,0.3-1c0-0.4-0.1-0.7-0.3-0.8c-0.3-0.1-0.7-0.2-1.1-0.2V52.3z"/>
		<path class="st5" d="M21.5,45.4h2v6.3c0,0.2,0,0.4,0.1,0.5c0.1,0.1,0.3,0.2,0.5,0.2c0.2,0,0.4-0.1,0.5-0.2
			c0.1-0.2,0.2-0.4,0.2-0.5v-6.2h2v6c0,0.7-0.2,1.3-0.6,1.8c-0.5,0.5-1.3,0.7-2,0.7c-0.7,0-1.4-0.2-1.9-0.6
			c-0.5-0.5-0.7-1.2-0.7-1.9L21.5,45.4z"/>
		<path class="st5" d="M29.6,53.8h-2v-8.3h2.9c0.7,0,1.3,0.2,1.8,0.6c0.4,0.5,0.7,1.1,0.6,1.8c0,0.4-0.1,0.8-0.2,1.2
			c-0.2,0.3-0.5,0.6-0.8,0.7c0.3,0.1,0.5,0.2,0.7,0.4c0.2,0.2,0.3,0.4,0.3,0.7c0,0.4,0,0.9,0,1.4c0,0.4,0.1,0.8,0.2,1.2
			c0,0.1,0.1,0.2,0.2,0.3v0.1h-2.1c0-0.1-0.1-0.2-0.1-0.3c0-0.1,0-0.1,0-0.2v-1.6c0-0.2-0.1-0.3-0.1-0.5c0-0.2-0.1-0.3-0.2-0.5
			c-0.1-0.2-0.3-0.2-0.5-0.2h-0.6L29.6,53.8z M29.6,49h0.7c0.2,0,0.4-0.1,0.5-0.3c0.1-0.2,0.2-0.5,0.2-0.7c0-0.5-0.1-0.7-0.3-0.8
			c-0.3-0.1-0.7-0.2-1.1-0.2V49z"/>
		<path class="st5" d="M33.8,53.8v-8.3h4.5v1.7h-2.5v1.5h2.4v1.7h-2.4v1.8h2.7v1.7L33.8,53.8z"/>
		<path class="st5" d="M39,53.8l1.8-8.3h2.3l1.8,8.3h-2l-0.3-1.6h-1.5L41,53.8H39z M42,46.9l-0.6,3.7h1.1L42,46.9z"/>
		<path class="st5" d="M45.5,45.4h2v6.3c0,0.2,0,0.4,0.1,0.5c0.1,0.1,0.3,0.2,0.5,0.2c0.2,0,0.4-0.1,0.5-0.2
			c0.1-0.2,0.2-0.4,0.2-0.5v-6.2h2v6c0,0.7-0.2,1.3-0.6,1.8c-0.5,0.5-1.3,0.7-2,0.7c-0.7,0-1.4-0.2-1.9-0.6
			c-0.5-0.5-0.7-1.2-0.7-1.9L45.5,45.4z"/>
		<path class="st5" d="M55.9,53.8l-1.8-8.3h2l1,5.8l1-5.8h2l-1.8,8.3H55.9z"/>
		<path class="st5" d="M60.7,53.8v-8.3h4.5v1.7h-2.5v1.5h2.4v1.7h-2.4v1.8h2.6v1.7L60.7,53.8z"/>
		<path class="st5" d="M68.1,53.8h-2v-8.3H69c0.6-0.1,1.3,0.1,1.8,0.5c0.4,0.5,0.6,1.1,0.6,1.8c0,0.4-0.1,0.8-0.2,1.2
			c-0.2,0.3-0.5,0.6-0.8,0.7c0.3,0.1,0.5,0.2,0.7,0.4c0.2,0.2,0.3,0.4,0.3,0.7c0,0.4,0,0.9,0,1.4s0.1,1,0.1,1.2
			c0,0.1,0.1,0.2,0.2,0.3v0.1h-2.1c0-0.1-0.1-0.2-0.1-0.3c0-0.1,0-0.1,0-0.2v-1.6c0-0.1,0-0.3-0.1-0.5c0-0.2-0.1-0.3-0.2-0.5
			c-0.1-0.2-0.3-0.2-0.5-0.2h-0.7L68.1,53.8z M68.1,49h0.7c0.2,0,0.4-0.1,0.6-0.3c0.1-0.2,0.2-0.5,0.2-0.7c0-0.5-0.1-0.7-0.3-0.8
			c-0.3-0.1-0.7-0.2-1.1-0.2L68.1,49z"/>
		<path class="st5" d="M72.4,53.8v-8.3h1.9v8.3H72.4z"/>
		<path class="st5" d="M75.2,45.4h5.1v1.7h-1.6v6.7h-2v-6.7h-1.5V45.4z"/>
		<path class="st5" d="M80.6,53.8l1.8-8.3h2.3l1.8,8.3h-2l-0.3-1.6h-1.5l-0.2,1.6H80.6z M83.6,46.9L83,50.7h1.1L83.6,46.9z"/>
		<path class="st5" d="M88.6,51v0.6c0,0.2,0.1,0.5,0.2,0.7c0.1,0.2,0.4,0.3,0.6,0.2c0.2,0,0.4-0.1,0.5-0.2c0.1-0.2,0.2-0.4,0.2-0.6
			c0-0.3-0.1-0.5-0.2-0.7c-0.2-0.2-0.5-0.4-0.8-0.6c-0.3-0.2-0.6-0.4-0.9-0.6c-0.2-0.2-0.4-0.3-0.6-0.5c-0.2-0.2-0.3-0.5-0.4-0.7
			c-0.1-0.3-0.2-0.6-0.2-0.9c0-0.7,0.2-1.3,0.7-1.8c0.5-0.4,1.1-0.6,1.8-0.6c0.7-0.1,1.4,0.2,1.8,0.7c0.4,0.6,0.7,1.3,0.6,2h-1.8
			c0-0.3,0-0.6-0.1-0.9c-0.1-0.2-0.3-0.4-0.5-0.3c-0.2,0-0.4,0-0.5,0.1c-0.1,0.1-0.2,0.3-0.2,0.4v0.1c0,0.2,0,0.3,0.1,0.5
			c0.1,0.2,0.3,0.3,0.4,0.4l1.1,0.7c0.3,0.2,0.5,0.3,0.7,0.5c0.2,0.2,0.4,0.5,0.5,0.8c0.1,0.4,0.2,0.8,0.2,1.2
			c0,0.7-0.2,1.3-0.6,1.8c-0.5,0.5-1.2,0.7-1.9,0.7c-0.7,0.1-1.4-0.2-1.9-0.6c-0.4-0.4-0.6-0.9-0.6-1.5V51H88.6z"/>
		<g class="st6">
			<path class="st7" d="M19.7,82.5h-3v1.3h2.7v0.9h-2.7v1.4h3V87h-4v-5.4h4V82.5z"/>
		</g>
		<g class="st6">
			<path class="st7" d="M22.4,85l1.5,2h-1.1l-0.1-0.2c-0.2-0.4-0.4-0.6-0.4-0.6c-0.2-0.3-0.3-0.5-0.4-0.5c-0.4,0.5-0.6,0.9-0.8,1.1
				L21,87h-1.1l1.5-2L20,83.1h1.1l0.2,0.3c0.3,0.4,0.5,0.7,0.6,0.9c0.2-0.4,0.5-0.7,0.6-0.9l0.2-0.3h1.1L22.4,85z"/>
		</g>
		<g class="st6">
			<path class="st7" d="M24.3,86.5c-0.4-0.4-0.5-0.9-0.5-1.5c0-0.6,0.2-1.1,0.5-1.5c0.4-0.4,0.8-0.6,1.4-0.6c0.5,0,0.9,0.1,1.3,0.4
				s0.5,0.6,0.6,1.1h-1c0-0.2-0.1-0.4-0.3-0.5c-0.2-0.1-0.3-0.2-0.6-0.2c-0.3,0-0.5,0.1-0.7,0.3c-0.2,0.2-0.3,0.5-0.3,0.9
				c0,0.4,0.1,0.7,0.3,0.9c0.2,0.2,0.4,0.3,0.7,0.3c0.2,0,0.4-0.1,0.6-0.2s0.3-0.3,0.3-0.6h1c-0.1,0.5-0.2,0.9-0.6,1.1
				c-0.3,0.3-0.8,0.4-1.3,0.4C25.1,87.1,24.7,86.9,24.3,86.5z"/>
			<path class="st7" d="M28.1,87v-5.4h1V87H28.1z"/>
			<path class="st7" d="M32.4,83.1h1V87h-0.9v-0.6c-0.3,0.4-0.7,0.7-1.2,0.7c-0.4,0-0.8-0.1-1-0.4c-0.2-0.2-0.4-0.6-0.4-1v-2.6h1
				v2.4c0,0.5,0.2,0.7,0.7,0.7c0.2,0,0.5-0.1,0.6-0.3c0.2-0.2,0.3-0.4,0.3-0.7V83.1z"/>
			<path class="st7" d="M37,81.6h1V87H37v-0.5c-0.3,0.4-0.7,0.6-1.2,0.6c-0.5,0-1-0.2-1.3-0.6C34.1,86.2,34,85.7,34,85
				c0-0.6,0.2-1.1,0.5-1.5c0.3-0.4,0.7-0.6,1.3-0.6c0.5,0,0.9,0.2,1.2,0.6V81.6z M36,86.3c0.3,0,0.6-0.1,0.7-0.3
				c0.2-0.2,0.3-0.5,0.3-0.9c0-0.4-0.1-0.7-0.3-0.9c-0.2-0.2-0.4-0.3-0.7-0.3c-0.3,0-0.6,0.1-0.7,0.3s-0.3,0.5-0.3,1
				c0,0.4,0.1,0.7,0.3,0.9C35.4,86.2,35.7,86.3,36,86.3z"/>
			<path class="st7" d="M38.7,87v-3.9h1V87H38.7z M38.7,82.6v-0.9h0.9v0.9H38.7z"/>
			<path class="st7" d="M43.6,83.3c0.2,0.2,0.4,0.6,0.4,1V87h-1v-2.4c0-0.5-0.2-0.7-0.7-0.7c-0.2,0-0.5,0.1-0.6,0.3
				s-0.3,0.4-0.3,0.7V87h-1v-3.9h0.9v0.6c0.3-0.4,0.7-0.7,1.2-0.7C43,83,43.4,83.1,43.6,83.3z"/>
			<path class="st7" d="M47.6,83.1h0.9v3.8c0,0.5-0.2,1-0.5,1.3c-0.3,0.3-0.8,0.5-1.4,0.5c-0.5,0-1-0.1-1.3-0.4
				c-0.3-0.2-0.5-0.6-0.5-1h0.9c0,0.4,0.3,0.6,0.9,0.6c0.3,0,0.6-0.1,0.7-0.2c0.2-0.2,0.2-0.4,0.2-0.7v-0.5
				c-0.3,0.4-0.7,0.6-1.2,0.6c-0.5,0-1-0.2-1.3-0.6c-0.3-0.4-0.5-0.8-0.5-1.4c0-0.6,0.2-1.1,0.5-1.5c0.3-0.4,0.7-0.5,1.3-0.5
				c0.6,0,1,0.2,1.2,0.6V83.1z M47.3,85.9c0.2-0.2,0.3-0.5,0.3-0.9c0-0.4-0.1-0.7-0.3-0.9c-0.2-0.2-0.4-0.3-0.7-0.3
				c-0.3,0-0.6,0.1-0.7,0.3c-0.2,0.2-0.3,0.5-0.3,0.9c0,0.4,0.1,0.7,0.3,0.9c0.2,0.2,0.4,0.3,0.7,0.3C46.9,86.2,47.2,86.1,47.3,85.9
				z"/>
		</g>
		<g class="st6">
			<path class="st7" d="M53.1,81.6c0.9,0,1.5,0.2,2,0.7c0.5,0.5,0.7,1.2,0.7,2c0,0.8-0.2,1.5-0.7,2c-0.5,0.5-1.1,0.7-2,0.7H51v-5.4
				H53.1z M53.1,86.1c0.5,0,0.9-0.2,1.2-0.5c0.3-0.3,0.4-0.8,0.4-1.4c0-0.6-0.1-1-0.4-1.4c-0.3-0.3-0.7-0.5-1.2-0.5h-1v3.7H53.1z"/>
		</g>
		<g class="st6">
			<path class="st7" d="M60.2,85.3h-2.9c0,0.3,0.1,0.6,0.3,0.8c0.2,0.2,0.4,0.3,0.7,0.3c0.4,0,0.7-0.2,0.9-0.6h0.9
				c-0.1,0.4-0.3,0.7-0.6,1c-0.3,0.2-0.7,0.4-1.2,0.4c-0.6,0-1.1-0.2-1.4-0.6c-0.4-0.4-0.5-0.9-0.5-1.5c0-0.6,0.2-1.1,0.5-1.5
				c0.4-0.4,0.8-0.6,1.4-0.6c0.6,0,1.1,0.2,1.4,0.6s0.5,0.9,0.5,1.5V85.3z M57.2,84.7h2c0-0.3-0.1-0.5-0.3-0.7
				c-0.2-0.2-0.4-0.3-0.7-0.3C57.7,83.7,57.3,84,57.2,84.7z"/>
		</g>
		<g class="st6">
			<path class="st7" d="M60.5,85.7h0.9c0,0.2,0.1,0.4,0.2,0.5s0.3,0.2,0.6,0.2c0.5,0,0.8-0.2,0.8-0.5c0-0.1-0.1-0.3-0.2-0.3
				s-0.3-0.1-0.6-0.2l-0.5-0.1c-0.9-0.1-1.3-0.5-1.3-1.2c0-0.4,0.1-0.7,0.4-0.9s0.7-0.3,1.2-0.3c1.1,0,1.7,0.4,1.7,1.3h-0.9
				c0-0.2-0.1-0.4-0.2-0.5c-0.1-0.1-0.3-0.1-0.6-0.1c-0.5,0-0.7,0.2-0.7,0.5c0,0.1,0.1,0.2,0.2,0.3c0.1,0.1,0.3,0.1,0.5,0.2l0.5,0.1
				c0.5,0.1,0.8,0.2,1,0.4s0.3,0.5,0.3,0.8c0,0.4-0.2,0.7-0.5,0.9s-0.7,0.3-1.3,0.3C61.2,87.1,60.6,86.7,60.5,85.7z"/>
			<path class="st7" d="M64.6,87v-3.9h1V87H64.6z M64.6,82.6v-0.9h0.9v0.9H64.6z"/>
			<path class="st7" d="M69.2,83.1h0.9v3.8c0,0.5-0.2,1-0.5,1.3c-0.3,0.3-0.8,0.5-1.4,0.5c-0.5,0-1-0.1-1.3-0.4
				c-0.3-0.2-0.5-0.6-0.5-1h0.9c0,0.4,0.3,0.6,0.9,0.6c0.3,0,0.6-0.1,0.7-0.2c0.2-0.2,0.2-0.4,0.2-0.7v-0.5
				c-0.3,0.4-0.7,0.6-1.2,0.6c-0.5,0-1-0.2-1.3-0.6c-0.3-0.4-0.5-0.8-0.5-1.4c0-0.6,0.2-1.1,0.5-1.5c0.3-0.4,0.7-0.5,1.3-0.5
				c0.6,0,1,0.2,1.2,0.6V83.1z M68.9,85.9c0.2-0.2,0.3-0.5,0.3-0.9c0-0.4-0.1-0.7-0.3-0.9c-0.2-0.2-0.4-0.3-0.7-0.3
				c-0.3,0-0.6,0.1-0.7,0.3c-0.2,0.2-0.3,0.5-0.3,0.9c0,0.4,0.1,0.7,0.3,0.9c0.2,0.2,0.4,0.3,0.7,0.3C68.5,86.2,68.7,86.1,68.9,85.9
				z"/>
			<path class="st7" d="M74.1,83.3c0.2,0.2,0.4,0.6,0.4,1V87h-1v-2.4c0-0.5-0.2-0.7-0.7-0.7c-0.2,0-0.5,0.1-0.6,0.3
				s-0.3,0.4-0.3,0.7V87h-1v-3.9h0.9v0.6c0.3-0.4,0.7-0.7,1.2-0.7C73.5,83,73.8,83.1,74.1,83.3z"/>
		</g>
		<g class="st6">
			<path class="st7" d="M208,86.4c-0.4-0.5-0.6-1.2-0.6-2.1c0-0.9,0.2-1.6,0.6-2.1c0.4-0.5,0.9-0.7,1.6-0.7c0.7,0,1.3,0.2,1.6,0.7
				c0.4,0.5,0.6,1.2,0.6,2.1c0,0.9-0.2,1.6-0.6,2.1c-0.4,0.5-0.9,0.7-1.6,0.7C208.9,87.1,208.4,86.9,208,86.4z M210.8,84.3
				c0-1.3-0.4-2-1.1-2c-0.7,0-1.1,0.7-1.1,2c0,1.3,0.4,2,1.1,2C210.4,86.3,210.8,85.6,210.8,84.3z"/>
		</g>
		<g class="st6">
			<path class="st7" d="M213,86.4c-0.4-0.5-0.6-1.2-0.6-2.1c0-0.9,0.2-1.6,0.6-2.1s0.9-0.7,1.6-0.7s1.3,0.2,1.6,0.7s0.6,1.2,0.6,2.1
				c0,0.9-0.2,1.6-0.6,2.1s-0.9,0.7-1.6,0.7S213.3,86.9,213,86.4z M215.7,84.3c0-1.3-0.4-2-1.1-2c-0.7,0-1.1,0.7-1.1,2
				c0,1.3,0.4,2,1.1,2C215.3,86.3,215.7,85.6,215.7,84.3z"/>
		</g>
		<g class="st6">
			<path class="st7" d="M221.5,85.5c0,0.5-0.2,0.9-0.6,1.2c-0.4,0.3-0.9,0.5-1.6,0.5s-1.2-0.2-1.5-0.5c-0.4-0.3-0.6-0.7-0.6-1.2
				c0-0.6,0.3-1.1,0.9-1.3c-0.5-0.2-0.7-0.6-0.7-1.2c0-0.5,0.2-0.8,0.5-1.1c0.4-0.3,0.8-0.4,1.4-0.4s1,0.1,1.4,0.4
				c0.4,0.3,0.5,0.6,0.5,1.1c0,0.5-0.2,0.9-0.7,1.2C221.2,84.4,221.5,84.8,221.5,85.5z M220.2,86.1c0.2-0.2,0.3-0.4,0.3-0.7
				c0-0.3-0.1-0.5-0.3-0.7c-0.2-0.2-0.5-0.2-0.8-0.2s-0.6,0.1-0.8,0.2c-0.2,0.2-0.3,0.4-0.3,0.7c0,0.3,0.1,0.5,0.3,0.7
				c0.2,0.2,0.5,0.2,0.8,0.2C219.7,86.3,220,86.2,220.2,86.1z M219.4,82.2c-0.3,0-0.5,0.1-0.7,0.2c-0.2,0.1-0.3,0.3-0.3,0.6
				c0,0.2,0.1,0.4,0.3,0.6c0.2,0.1,0.4,0.2,0.7,0.2s0.5-0.1,0.7-0.2c0.2-0.1,0.3-0.3,0.3-0.6c0-0.2-0.1-0.4-0.3-0.6
				C219.9,82.3,219.7,82.2,219.4,82.2z"/>
		</g>
	</g>
</g>
</svg>
